<?xml version="1.0" standalone="no"?>
  <!DOCTYPE svg PUBLIC "-//W3C//DTD SVG 1.1//EN" "http://www.w3.org/Graphics/SVG/1.1/DTD/svg11.dtd" >
  <svg>
  <metadata>
  Created by font-carrier
  </metadata>
  <defs>
  <font id="TekturTight-Black" horiz-adv-x="1090" vert-adv-y="1090" >
    <font-face
      
      font-family="Tektur Tight Black"
      
      font-weight="400"
      
      font-stretch="normal"
      
      units-per-em="1000"
      
      ascent="1000"
      
      descent="-250"
      
    />
      <missing-glyph />

      

      
      <glyph glyph-name="uni41" unicode="&#x41;" d="M5 0L112 700L468 700L575 0L355 0L343 110L237 110L225 0L5 0M255 270L325 270L297 530L283 530L255 270Z"  horiz-adv-x="580" vert-adv-y="1000"  />

      
      <glyph glyph-name="uni42" unicode="&#x42;" d="M525 570L525 430L458 364L545 296L545 130L415 0L30 0L30 700L395 700L525 570M245 425L310 425L310 530L245 530L245 425M245 170L325 170L325 285L245 285L245 170Z"  horiz-adv-x="560" vert-adv-y="1000"  />

      
      <glyph glyph-name="uni43" unicode="&#x43;" d="M25 140L25 560L165 700L445 700L445 495L265 495L265 205L445 205L445 0L165 0L25 140Z"  horiz-adv-x="465" vert-adv-y="1000"  />

      
      <glyph glyph-name="uni44" unicode="&#x44;" d="M30 0L30 700L390 700L530 560L530 140L390 0L30 0M250 190L310 190L310 510L250 510L250 190Z"  horiz-adv-x="555" vert-adv-y="1000"  />

      
      <glyph glyph-name="uni45" unicode="&#x45;" d="M30 0L30 700L410 700L410 520L250 520L250 440L390 440L390 270L250 270L250 180L420 180L420 0L30 0Z"  horiz-adv-x="440" vert-adv-y="1000"  />

      
      <glyph glyph-name="uni46" unicode="&#x46;" d="M30 0L30 700L400 700L400 500L250 500L250 380L380 380L380 190L250 190L250 0L30 0Z"  horiz-adv-x="420" vert-adv-y="1000"  />

      
      <glyph glyph-name="uni47" unicode="&#x47;" d="M25 140L25 560L165 700L485 700L485 500L245 500L245 200L305 200L305 265L275 265L275 435L495 435L495 0L165 0L25 140Z"  horiz-adv-x="520" vert-adv-y="1000"  />

      
      <glyph glyph-name="uni48" unicode="&#x48;" d="M30 0L30 700L250 700L250 460L310 460L310 700L530 700L530 0L310 0L310 260L250 260L250 0L30 0Z"  horiz-adv-x="560" vert-adv-y="1000"  />

      
      <glyph glyph-name="uni49" unicode="&#x49;" d="M15-4L15 161L65 166L65 534L15 539L15 704L175 696L335 704L335 539L285 534L285 166L335 161L335-4L175 4L15-4Z"  horiz-adv-x="350" vert-adv-y="1000"  />

      
      <glyph glyph-name="uni4a" unicode="&#x4a;" d="M15 140L15 350L235 350L235 190L285 190L285 510L55 510L55 700L505 700L505 140L365 0L155 0L15 140Z"  horiz-adv-x="530" vert-adv-y="1000"  />

      
      <glyph glyph-name="uni4b" unicode="&#x4b;" d="M30 0L30 700L250 700L250 446L272 446L326 700L565 700L460 370L580 0L338 0L277 264L250 264L250 0L30 0Z"  horiz-adv-x="580" vert-adv-y="1000"  />

      
      <glyph glyph-name="uni4c" unicode="&#x4c;" d="M30 0L30 700L250 700L250 180L300 180L300 280L490 280L490 0L30 0Z"  horiz-adv-x="510" vert-adv-y="1000"  />

      
      <glyph glyph-name="uni4d" unicode="&#x4d;" d="M30 0L30 700L240 700L320 460L400 700L610 700L610 0L400 0L400 350L340 170L300 170L240 350L240 0L30 0Z"  horiz-adv-x="640" vert-adv-y="1000"  />

      
      <glyph glyph-name="uni4e" unicode="&#x4e;" d="M30 0L30 700L200 700L330 385L330 700L530 700L530 0L360 0L230 315L230 0L30 0Z"  horiz-adv-x="560" vert-adv-y="1000"  />

      
      <glyph glyph-name="uni4f" unicode="&#x4f;" d="M25 140L25 560L165 700L395 700L535 560L535 140L395 0L165 0L25 140M250 500L250 200L310 200L310 500L250 500Z"  horiz-adv-x="560" vert-adv-y="1000"  />

      
      <glyph glyph-name="uni50" unicode="&#x50;" d="M530 560L530 270L390 130L250 130L250 0L30 0L30 700L390 700L530 560M250 300L310 300L310 530L250 530L250 300Z"  horiz-adv-x="545" vert-adv-y="1000"  />

      
      <glyph glyph-name="uni51" unicode="&#x51;" d="M25 140L25 560L165 700L385 700L525 560L525 187L436 136L535 110L535-100L165 0L25 140M245 185L305 169L305 500L245 500L245 185Z"  horiz-adv-x="560" vert-adv-y="1000"  />

      
      <glyph glyph-name="uni52" unicode="&#x52;" d="M530 560L530 308L460 238L560 0L302 0L289 170L250 170L250 0L30 0L30 700L390 700L530 560M250 340L310 340L310 530L250 530L250 340Z"  horiz-adv-x="560" vert-adv-y="1000"  />

      
      <glyph glyph-name="uni53" unicode="&#x53;" d="M35 0L35 190L275 190L275 260L25 293L25 560L165 700L485 700L485 510L245 510L245 450L495 417L495 140L355 0L35 0Z"  horiz-adv-x="520" vert-adv-y="1000"  />

      
      <glyph glyph-name="uni54" unicode="&#x54;" d="M105 0L105 500L10 500L10 700L440 700L440 500L335 500L335 0L105 0Z"  horiz-adv-x="450" vert-adv-y="1000"  />

      
      <glyph glyph-name="uni55" unicode="&#x55;" d="M30 140L30 700L250 700L250 200L310 200L310 700L530 700L530 140L390 0L170 0L30 140Z"  horiz-adv-x="560" vert-adv-y="1000"  />

      
      <glyph glyph-name="uni56" unicode="&#x56;" d="M112 0L5 700L235 700L283 190L297 190L345 700L575 700L468 0L112 0Z"  horiz-adv-x="580" vert-adv-y="1000"  />

      
      <glyph glyph-name="uni57" unicode="&#x57;" d="M67 0L10 700L245 700L255 240L265 240L308 590L432 590L475 240L485 240L495 700L730 700L673 0L397 0L370 257L343 0L67 0Z"  horiz-adv-x="740" vert-adv-y="1000"  />

      
      <glyph glyph-name="uni58" unicode="&#x58;" d="M0 0L120 370L15 700L250 700L295 460L305 460L350 700L585 700L480 370L600 0L362 0L310 260L290 260L238 0L0 0Z"  horiz-adv-x="600" vert-adv-y="1000"  />

      
      <glyph glyph-name="uni59" unicode="&#x59;" d="M170 0L170 210L107 210L5 700L240 700L275 380L285 380L320 700L555 700L453 210L390 210L390 0L170 0Z"  horiz-adv-x="560" vert-adv-y="1000"  />

      
      <glyph glyph-name="uni5a" unicode="&#x5a;" d="M20 0L20 160L215 520L25 520L25 700L460 700L460 540L265 180L465 180L465 0L20 0Z"  horiz-adv-x="485" vert-adv-y="1000"  />

      
      <glyph glyph-name="uni61" unicode="&#x61;" d="M20 120L20 320L280 330L280 380L30 380L30 560L350 560L490 420L490 0L140 0L20 120M230 220L230 170L280 170L280 240L230 220Z"  horiz-adv-x="520" vert-adv-y="1000"  />

      
      <glyph glyph-name="uni62" unicode="&#x62;" d="M30 0L30 700L250 700L250 560L390 560L530 420L530 140L390 0L30 0M250 180L310 180L310 380L250 380L250 180Z"  horiz-adv-x="560" vert-adv-y="1000"  />

      
      <glyph glyph-name="uni63" unicode="&#x63;" d="M30 130L30 430L160 560L420 560L420 360L250 360L250 200L420 200L420 0L160 0L30 130Z"  horiz-adv-x="440" vert-adv-y="1000"  />

      
      <glyph glyph-name="uni64" unicode="&#x64;" d="M530 700L530 0L170 0L30 140L30 420L170 560L310 560L310 700L530 700M250 180L310 180L310 380L250 380L250 180Z"  horiz-adv-x="560" vert-adv-y="1000"  />

      
      <glyph glyph-name="uni65" unicode="&#x65;" d="M30 130L30 430L160 560L490 560L490 240L250 240L250 180L480 180L480 0L160 0L30 130M250 330L310 340L310 400L250 400L250 330Z"  horiz-adv-x="520" vert-adv-y="1000"  />

      
      <glyph glyph-name="uni66" unicode="&#x66;" d="M30 0L30 570L160 700L370 700L370 510L250 510L250 430L370 430L370 250L250 250L250 0L30 0Z"  horiz-adv-x="390" vert-adv-y="1000"  />

      
      <glyph glyph-name="uni67" unicode="&#x67;" d="M60-140L60 40L310 40L310 80L160 80L30 210L30 430L160 560L530 560L530 24L366-140L60-140M250 380L250 250L310 250L310 380L250 380Z"  horiz-adv-x="560" vert-adv-y="1000"  />

      
      <glyph glyph-name="uni68" unicode="&#x68;" d="M30 0L30 700L250 700L250 560L390 560L530 420L530 0L310 0L310 380L250 380L250 0L30 0Z"  horiz-adv-x="560" vert-adv-y="1000"  />

      
      <glyph glyph-name="uni69" unicode="&#x69;" d="M30 600L30 730L250 730L250 600L30 600M30 0L30 560L250 560L250 0L30 0Z"  horiz-adv-x="280" vert-adv-y="1000"  />

      
      <glyph glyph-name="uni6a" unicode="&#x6a;" d="M30 600L30 730L250 730L250 600L30 600M30-140L30 560L250 560L250-140L30-140Z"  horiz-adv-x="280" vert-adv-y="1000"  />

      
      <glyph glyph-name="uni6b" unicode="&#x6b;" d="M30 0L30 700L250 700L250 381L281 381L322 560L550 560L463 301L560 0L329 0L284 201L250 201L250 0L30 0Z"  horiz-adv-x="570" vert-adv-y="1000"  />

      
      <glyph glyph-name="uni6c" unicode="&#x6c;" d="M30 0L30 700L250 700L250 0L30 0Z"  horiz-adv-x="280" vert-adv-y="1000"  />

      
      <glyph glyph-name="uni6d" unicode="&#x6d;" d="M30 560L645 560L785 420L785 0L570 0L570 390L510 390L510 0L305 0L305 390L245 390L245 0L30 0L30 560Z"  horiz-adv-x="815" vert-adv-y="1000"  />

      
      <glyph glyph-name="uni6e" unicode="&#x6e;" d="M30 0L30 560L390 560L530 420L530 0L310 0L310 370L250 370L250 0L30 0Z"  horiz-adv-x="560" vert-adv-y="1000"  />

      
      <glyph glyph-name="uni6f" unicode="&#x6f;" d="M30 130L30 430L160 560L400 560L530 430L530 130L400 0L160 0L30 130M250 170L310 170L310 390L250 390L250 170Z"  horiz-adv-x="560" vert-adv-y="1000"  />

      
      <glyph glyph-name="uni70" unicode="&#x70;" d="M30-140L30 560L390 560L530 420L530 140L390 0L250 0L250-140L30-140M310 380L250 380L250 180L310 180L310 380Z"  horiz-adv-x="560" vert-adv-y="1000"  />

      
      <glyph glyph-name="uni71" unicode="&#x71;" d="M530 560L530-140L310-140L310 0L170 0L30 140L30 420L170 560L530 560M310 380L250 380L250 180L310 180L310 380Z"  horiz-adv-x="560" vert-adv-y="1000"  />

      
      <glyph glyph-name="uni72" unicode="&#x72;" d="M30 0L30 420L170 560L375 560L375 360L250 360L250 0L30 0Z"  horiz-adv-x="390" vert-adv-y="1000"  />

      
      <glyph glyph-name="uni73" unicode="&#x73;" d="M30 0L30 170L260 170L260 230L30 230L30 440L150 560L480 560L480 390L250 390L250 330L480 330L480 120L360 0L30 0Z"  horiz-adv-x="510" vert-adv-y="1000"  />

      
      <glyph glyph-name="uni74" unicode="&#x74;" d="M30 650L250 700L250 540L380 540L380 360L250 360L250 180L380 180L380 0L170 0L30 140L30 650Z"  horiz-adv-x="400" vert-adv-y="1000"  />

      
      <glyph glyph-name="uni75" unicode="&#x75;" d="M530 560L530 0L170 0L30 140L30 560L250 560L250 190L310 190L310 560L530 560Z"  horiz-adv-x="560" vert-adv-y="1000"  />

      
      <glyph glyph-name="uni76" unicode="&#x76;" d="M96 0L5 560L226 560L264 185L280 185L318 560L535 560L444 0L96 0Z"  horiz-adv-x="540" vert-adv-y="1000"  />

      
      <glyph glyph-name="uni77" unicode="&#x77;" d="M74 0L5 560L220 560L245 215L255 215L297 500L453 500L495 215L505 215L530 560L745 560L676 0L410 0L375 283L340 0L74 0Z"  horiz-adv-x="750" vert-adv-y="1000"  />

      
      <glyph glyph-name="uni78" unicode="&#x78;" d="M5 0L95 291L11 560L246 560L269 371L291 371L314 560L549 560L465 291L555 0L317 0L296 191L264 191L243 0L5 0Z"  horiz-adv-x="560" vert-adv-y="1000"  />

      
      <glyph glyph-name="uni79" unicode="&#x79;" d="M36-140L36 40L259 40L264 80L86 80L5 560L224 560L254 250L283 250L318 560L535 560L417-140L36-140Z"  horiz-adv-x="540" vert-adv-y="1000"  />

      
      <glyph glyph-name="uni7a" unicode="&#x7a;" d="M20 0L20 160L170 380L25 380L25 560L410 560L410 400L260 180L415 180L415 0L20 0Z"  horiz-adv-x="435" vert-adv-y="1000"  />

      
      <glyph glyph-name="unic1" unicode="&#xc1;" d="M5 0L112 700L468 700L575 0L355 0L343 110L237 110L225 0L5 0M255 270L325 270L297 530L283 530L255 270M170 740L170 840L440 870L440 740L170 740Z"  horiz-adv-x="580" vert-adv-y="1000"  />

      
      <glyph glyph-name="unie1" unicode="&#xe1;" d="M20 120L20 320L280 330L280 380L30 380L30 560L350 560L490 420L490 0L140 0L20 120M230 220L230 170L280 170L280 240L230 220M120 600L120 700L390 730L390 600L120 600Z"  horiz-adv-x="520" vert-adv-y="1000"  />

      
      <glyph glyph-name="unic0" unicode="&#xc0;" d="M5 0L112 700L468 700L575 0L355 0L343 110L237 110L225 0L5 0M255 270L325 270L297 530L283 530L255 270M410 740L140 740L140 870L410 840L410 740Z"  horiz-adv-x="580" vert-adv-y="1000"  />

      
      <glyph glyph-name="unie0" unicode="&#xe0;" d="M20 120L20 320L280 330L280 380L30 380L30 560L350 560L490 420L490 0L140 0L20 120M230 220L230 170L280 170L280 240L230 220M360 600L90 600L90 730L360 700L360 600Z"  horiz-adv-x="520" vert-adv-y="1000"  />

      
      <glyph glyph-name="uni0102" unicode="&#x0102;" d="M5 0L112 700L468 700L575 0L355 0L343 110L237 110L225 0L5 0M255 270L325 270L297 530L283 530L255 270M320 880L470 880L370 730L210 730L110 880L260 880L260 820L320 820L320 880Z"  horiz-adv-x="580" vert-adv-y="1000"  />

      
      <glyph glyph-name="uni0103" unicode="&#x0103;" d="M20 120L20 320L280 330L280 380L30 380L30 560L350 560L490 420L490 0L140 0L20 120M230 220L230 170L280 170L280 240L230 220M270 740L420 740L320 590L160 590L60 740L210 740L210 680L270 680L270 740Z"  horiz-adv-x="520" vert-adv-y="1000"  />

      
      <glyph glyph-name="unic2" unicode="&#xc2;" d="M5 0L112 700L468 700L575 0L355 0L343 110L237 110L225 0L5 0M255 270L325 270L297 530L283 530L255 270M140 730L140 850L290 910L440 850L440 730L290 790L140 730Z"  horiz-adv-x="580" vert-adv-y="1000"  />

      
      <glyph glyph-name="unie2" unicode="&#xe2;" d="M20 120L20 320L280 330L280 380L30 380L30 560L350 560L490 420L490 0L140 0L20 120M230 220L230 170L280 170L280 240L230 220M90 590L90 710L240 770L390 710L390 590L240 650L90 590Z"  horiz-adv-x="520" vert-adv-y="1000"  />

      
      <glyph glyph-name="uni01CD" unicode="&#x01CD;" d="M5 0L112 700L468 700L575 0L355 0L343 110L237 110L225 0L5 0M255 270L325 270L297 530L283 530L255 270M440 910L440 790L290 730L140 790L140 910L290 850L440 910Z"  horiz-adv-x="580" vert-adv-y="1000"  />

      
      <glyph glyph-name="uni01CE" unicode="&#x01CE;" d="M20 120L20 320L280 330L280 380L30 380L30 560L350 560L490 420L490 0L140 0L20 120M230 220L230 170L280 170L280 240L230 220M390 770L390 650L240 590L90 650L90 770L240 710L390 770Z"  horiz-adv-x="520" vert-adv-y="1000"  />

      
      <glyph glyph-name="unic5" unicode="&#xc5;" d="M5 0L112 700L468 700L575 0L355 0L343 110L237 110L225 0L5 0M255 270L325 270L297 530L283 530L255 270M157 781L157 879L233 940L347 940L423 879L423 781L347 720L233 720L157 781M251 800L329 800L329 860L251 860L251 800Z"  horiz-adv-x="580" vert-adv-y="1000"  />

      
      <glyph glyph-name="unie5" unicode="&#xe5;" d="M20 120L20 320L280 330L280 380L30 380L30 560L350 560L490 420L490 0L140 0L20 120M230 220L230 170L280 170L280 240L230 220M107 641L107 739L183 800L297 800L373 739L373 641L297 580L183 580L107 641M201 660L279 660L279 720L201 720L201 660Z"  horiz-adv-x="520" vert-adv-y="1000"  />

      
      <glyph glyph-name="uni01FA" unicode="&#x01FA;" d="M5 0L112 700L468 700L575 0L355 0L343 110L237 110L225 0L5 0M255 270L325 270L297 530L283 530L255 270M449 872L414 898L436 980L543 980L449 872M157 781L157 879L233 940L347 940L423 879L423 781L347 720L233 720L157 781M251 800L329 800L329 860L251 860L251 800Z"  horiz-adv-x="580" vert-adv-y="1000"  />

      
      <glyph glyph-name="uni01FB" unicode="&#x01FB;" d="M20 120L20 320L280 330L280 380L30 380L30 560L350 560L490 420L490 0L140 0L20 120M230 220L230 170L280 170L280 240L230 220M399 732L364 758L386 840L493 840L399 732M107 641L107 739L183 800L297 800L373 739L373 641L297 580L183 580L107 641M201 660L279 660L279 720L201 720L201 660Z"  horiz-adv-x="520" vert-adv-y="1000"  />

      
      <glyph glyph-name="unic4" unicode="&#xc4;" d="M5 0L112 700L468 700L575 0L355 0L343 110L237 110L225 0L5 0M255 270L325 270L297 530L283 530L255 270M125 740L125 870L265 870L265 740L125 740M315 740L315 870L455 870L455 740L315 740Z"  horiz-adv-x="580" vert-adv-y="1000"  />

      
      <glyph glyph-name="unie4" unicode="&#xe4;" d="M20 120L20 320L280 330L280 380L30 380L30 560L350 560L490 420L490 0L140 0L20 120M230 220L230 170L280 170L280 240L230 220M75 600L75 730L215 730L215 600L75 600M265 600L265 730L405 730L405 600L265 600Z"  horiz-adv-x="520" vert-adv-y="1000"  />

      
      <glyph glyph-name="uni01DE" unicode="&#x01DE;" d="M5 0L112 700L468 700L575 0L355 0L343 110L237 110L225 0L5 0M255 270L325 270L297 530L283 530L255 270M125 740L125 870L265 870L265 740L125 740M315 740L315 870L455 870L455 740L315 740M140 910L140 990L440 990L440 910L140 910Z"  horiz-adv-x="580" vert-adv-y="1000"  />

      
      <glyph glyph-name="uni01DF" unicode="&#x01DF;" d="M20 120L20 320L280 330L280 380L30 380L30 560L350 560L490 420L490 0L140 0L20 120M230 220L230 170L280 170L280 240L230 220M75 600L75 730L215 730L215 600L75 600M265 600L265 730L405 730L405 600L265 600M90 770L90 850L390 850L390 770L90 770Z"  horiz-adv-x="520" vert-adv-y="1000"  />

      
      <glyph glyph-name="unic3" unicode="&#xc3;" d="M5 0L112 700L468 700L575 0L355 0L343 110L237 110L225 0L5 0M255 270L325 270L297 530L283 530L255 270M150 710L130 825L230 885L334 845L430 890L450 775L350 715L246 755L150 710Z"  horiz-adv-x="580" vert-adv-y="1000"  />

      
      <glyph glyph-name="unie3" unicode="&#xe3;" d="M20 120L20 320L280 330L280 380L30 380L30 560L350 560L490 420L490 0L140 0L20 120M230 220L230 170L280 170L280 240L230 220M100 570L80 685L180 745L284 705L380 750L400 635L300 575L196 615L100 570Z"  horiz-adv-x="520" vert-adv-y="1000"  />

      
      <glyph glyph-name="uni0104" unicode="&#x0104;" d="M5 0L112 700L468 700L575 0L355 0L343 110L237 110L225 0L5 0M255 270L325 270L297 530L283 530L255 270M560-40L520-200L330-200L410-40L560-40Z"  horiz-adv-x="580" vert-adv-y="1000"  />

      
      <glyph glyph-name="uni0105" unicode="&#x0105;" d="M20 120L20 320L280 330L280 380L30 380L30 560L350 560L490 420L490 0L140 0L20 120M230 220L230 170L280 170L280 240L230 220M485-40L445-200L255-200L335-40L485-40Z"  horiz-adv-x="520" vert-adv-y="1000"  />

      
      <glyph glyph-name="uni0100" unicode="&#x0100;" d="M5 0L112 700L468 700L575 0L355 0L343 110L237 110L225 0L5 0M255 270L325 270L297 530L283 530L255 270M140 740L140 870L440 870L440 740L140 740Z"  horiz-adv-x="580" vert-adv-y="1000"  />

      
      <glyph glyph-name="uni0101" unicode="&#x0101;" d="M20 120L20 320L280 330L280 380L30 380L30 560L350 560L490 420L490 0L140 0L20 120M230 220L230 170L280 170L280 240L230 220M90 600L90 730L390 730L390 600L90 600Z"  horiz-adv-x="520" vert-adv-y="1000"  />

      
      <glyph glyph-name="uni0200" unicode="&#x0200;" d="M5 0L112 700L468 700L575 0L355 0L343 110L237 110L225 0L5 0M255 270L325 270L297 530L283 530L255 270M385 870L425 730L325 730L245 870L385 870M220 870L280 730L180 730L80 870L220 870Z"  horiz-adv-x="580" vert-adv-y="1000"  />

      
      <glyph glyph-name="uni0201" unicode="&#x0201;" d="M20 120L20 320L280 330L280 380L30 380L30 560L350 560L490 420L490 0L140 0L20 120M230 220L230 170L280 170L280 240L230 220M335 730L375 590L275 590L195 730L335 730M170 730L230 590L130 590L30 730L170 730Z"  horiz-adv-x="520" vert-adv-y="1000"  />

      
      <glyph glyph-name="uni0202" unicode="&#x0202;" d="M5 0L112 700L468 700L575 0L355 0L343 110L237 110L225 0L5 0M255 270L325 270L297 530L283 530L255 270M260 725L110 725L210 875L370 875L470 725L320 725L320 785L260 785L260 725Z"  horiz-adv-x="580" vert-adv-y="1000"  />

      
      <glyph glyph-name="uni0203" unicode="&#x0203;" d="M20 120L20 320L280 330L280 380L30 380L30 560L350 560L490 420L490 0L140 0L20 120M230 220L230 170L280 170L280 240L230 220M210 585L60 585L160 735L320 735L420 585L270 585L270 645L210 645L210 585Z"  horiz-adv-x="520" vert-adv-y="1000"  />

      
      <glyph glyph-name="unic6" unicode="&#xc6;" d="M5 0L154 700L685 700L685 520L535 520L535 440L665 440L665 270L535 270L535 180L695 180L695 0L325 0L325 110L243 110L225 0L5 0M268 270L325 270L325 540L311 540L268 270Z"  horiz-adv-x="715" vert-adv-y="1000"  />

      
      <glyph glyph-name="unie6" unicode="&#xe6;" d="M20 120L20 320L280 330L280 380L30 380L30 560L310 560L380 490L450 560L740 560L740 240L500 240L500 180L720 180L720 0L140 0L20 120M500 330L560 340L560 400L500 400L500 330M230 220L230 170L280 170L280 240L230 220Z"  horiz-adv-x="770" vert-adv-y="1000"  />

      
      <glyph glyph-name="uni01FC" unicode="&#x01FC;" d="M5 0L154 700L685 700L685 520L535 520L535 440L665 440L665 270L535 270L535 180L695 180L695 0L325 0L325 110L243 110L225 0L5 0M268 270L325 270L325 540L311 540L268 270M300 740L300 840L570 870L570 740L300 740Z"  horiz-adv-x="715" vert-adv-y="1000"  />

      
      <glyph glyph-name="uni01FD" unicode="&#x01FD;" d="M20 120L20 320L280 330L280 380L30 380L30 560L310 560L380 490L450 560L740 560L740 240L500 240L500 180L720 180L720 0L140 0L20 120M500 330L560 340L560 400L500 400L500 330M230 220L230 170L280 170L280 240L230 220M265 600L265 700L535 730L535 600L265 600Z"  horiz-adv-x="770" vert-adv-y="1000"  />

      
      <glyph glyph-name="uni1E02" unicode="&#x1E02;" d="M525 570L525 430L458 364L545 296L545 130L415 0L30 0L30 700L395 700L525 570M245 425L310 425L310 530L245 530L245 425M245 170L325 170L325 285L245 285L245 170M160 740L160 870L380 870L380 740L160 740Z"  horiz-adv-x="560" vert-adv-y="1000"  />

      
      <glyph glyph-name="uni1E03" unicode="&#x1E03;" d="M30 0L30 700L250 700L250 560L390 560L530 420L530 140L390 0L30 0M250 180L310 180L310 380L250 380L250 180M140 740L140 870L360 870L360 740L140 740Z"  horiz-adv-x="560" vert-adv-y="1000"  />

      
      <glyph glyph-name="uni0181" unicode="&#x0181;" d="M180 530L180 420L10 420L10 580L130 700L585 700L715 570L715 430L648 364L735 296L735 130L605 0L215 0L215 530L180 530M435 425L500 425L500 530L435 530L435 425M435 170L515 170L515 285L435 285L435 170Z"  horiz-adv-x="755" vert-adv-y="1000"  />

      
      <glyph glyph-name="uni0253" unicode="&#x0253;" d="M30 0L30 570L160 700L300 700L300 540L250 540L250 500L390 500L530 360L530 140L390 0L30 0M250 180L310 180L310 350L250 350L250 180Z"  horiz-adv-x="560" vert-adv-y="1000"  />

      
      <glyph glyph-name="uni0106" unicode="&#x0106;" d="M25 140L25 560L165 700L445 700L445 495L265 495L265 205L445 205L445 0L165 0L25 140M145 740L145 840L415 870L415 740L145 740Z"  horiz-adv-x="465" vert-adv-y="1000"  />

      
      <glyph glyph-name="uni0107" unicode="&#x0107;" d="M30 130L30 430L160 560L420 560L420 360L250 360L250 200L420 200L420 0L160 0L30 130M140 600L140 700L410 730L410 600L140 600Z"  horiz-adv-x="440" vert-adv-y="1000"  />

      
      <glyph glyph-name="uni0108" unicode="&#x0108;" d="M25 140L25 560L165 700L445 700L445 495L265 495L265 205L445 205L445 0L165 0L25 140M115 730L115 850L265 910L415 850L415 730L265 790L115 730Z"  horiz-adv-x="465" vert-adv-y="1000"  />

      
      <glyph glyph-name="uni0109" unicode="&#x0109;" d="M30 130L30 430L160 560L420 560L420 360L250 360L250 200L420 200L420 0L160 0L30 130M110 590L110 710L260 770L410 710L410 590L260 650L110 590Z"  horiz-adv-x="440" vert-adv-y="1000"  />

      
      <glyph glyph-name="uni010C" unicode="&#x010C;" d="M25 140L25 560L165 700L445 700L445 495L265 495L265 205L445 205L445 0L165 0L25 140M415 910L415 790L265 730L115 790L115 910L265 850L415 910Z"  horiz-adv-x="465" vert-adv-y="1000"  />

      
      <glyph glyph-name="uni010D" unicode="&#x010D;" d="M30 130L30 430L160 560L420 560L420 360L250 360L250 200L420 200L420 0L160 0L30 130M410 770L410 650L260 590L110 650L110 770L260 710L410 770Z"  horiz-adv-x="440" vert-adv-y="1000"  />

      
      <glyph glyph-name="uni010A" unicode="&#x010A;" d="M25 140L25 560L165 700L445 700L445 495L265 495L265 205L445 205L445 0L165 0L25 140M155 740L155 870L375 870L375 740L155 740Z"  horiz-adv-x="465" vert-adv-y="1000"  />

      
      <glyph glyph-name="uni010B" unicode="&#x010B;" d="M30 130L30 430L160 560L420 560L420 360L250 360L250 200L420 200L420 0L160 0L30 130M150 600L150 730L370 730L370 600L150 600Z"  horiz-adv-x="440" vert-adv-y="1000"  />

      
      <glyph glyph-name="unic7" unicode="&#xc7;" d="M25 140L25 560L165 700L445 700L445 495L265 495L265 205L445 205L445 0L165 0L25 140M150-200L190-50L380-50L300-200L150-200Z"  horiz-adv-x="465" vert-adv-y="1000"  />

      
      <glyph glyph-name="unie7" unicode="&#xe7;" d="M30 130L30 430L160 560L420 560L420 360L250 360L250 200L420 200L420 0L160 0L30 130M145-200L185-50L375-50L295-200L145-200Z"  horiz-adv-x="440" vert-adv-y="1000"  />

      
      <glyph glyph-name="uni010E" unicode="&#x010E;" d="M30 0L30 700L390 700L530 560L530 140L390 0L30 0M250 190L310 190L310 510L250 510L250 190M400 910L400 790L250 730L100 790L100 910L250 850L400 910Z"  horiz-adv-x="555" vert-adv-y="1000"  />

      
      <glyph glyph-name="uni010F" unicode="&#x010F;" d="M530 700L530 0L170 0L30 140L30 420L170 560L310 560L310 700L530 700M250 180L310 180L310 380L250 380L250 180M560 460L560 700L626 700L626 460L560 460Z"  horiz-adv-x="626" vert-adv-y="1000"  />

      
      <glyph glyph-name="uni1E0A" unicode="&#x1E0A;" d="M30 0L30 700L390 700L530 560L530 140L390 0L30 0M250 190L310 190L310 510L250 510L250 190M140 740L140 870L360 870L360 740L140 740Z"  horiz-adv-x="555" vert-adv-y="1000"  />

      
      <glyph glyph-name="uni1E0B" unicode="&#x1E0B;" d="M530 700L530 0L170 0L30 140L30 420L170 560L310 560L310 700L530 700M250 180L310 180L310 380L250 380L250 180M200 740L200 870L420 870L420 740L200 740Z"  horiz-adv-x="560" vert-adv-y="1000"  />

      
      <glyph glyph-name="uni1E10" unicode="&#x1E10;" d="M30 0L30 700L390 700L530 560L530 140L390 0L30 0M250 190L310 190L310 510L250 510L250 190M135-200L175-50L365-50L285-200L135-200Z"  horiz-adv-x="555" vert-adv-y="1000"  />

      
      <glyph glyph-name="uni1E11" unicode="&#x1E11;" d="M530 700L530 0L170 0L30 140L30 420L170 560L310 560L310 700L530 700M250 180L310 180L310 380L250 380L250 180M195-200L235-50L425-50L345-200L195-200Z"  horiz-adv-x="560" vert-adv-y="1000"  />

      
      <glyph glyph-name="uni0110" unicode="&#x0110;" d="M50 0L50 700L410 700L550 560L550 140L410 0L50 0M270 190L330 190L330 510L270 510L270 190Z"  horiz-adv-x="575" vert-adv-y="1000"  />

      
      <glyph glyph-name="uni0111" unicode="&#x0111;" d="M110 564L110 640L310 640L310 700L530 700L530 0L170 0L30 140L30 370L170 510L310 510L310 564L110 564M250 180L310 180L310 330L250 330L250 180Z"  horiz-adv-x="560" vert-adv-y="1000"  />

      
      <glyph glyph-name="uni1E0C" unicode="&#x1E0C;" d="M30 0L30 700L390 700L530 560L530 140L390 0L30 0M250 190L310 190L310 510L250 510L250 190M140-190L140-60L360-60L360-190L140-190Z"  horiz-adv-x="555" vert-adv-y="1000"  />

      
      <glyph glyph-name="uni1E0D" unicode="&#x1E0D;" d="M530 700L530 0L170 0L30 140L30 420L170 560L310 560L310 700L530 700M250 180L310 180L310 380L250 380L250 180M200-190L200-60L420-60L420-190L200-190Z"  horiz-adv-x="560" vert-adv-y="1000"  />

      
      <glyph glyph-name="unid0" unicode="&#xd0;" d="M50 0L50 280L10 280L10 420L50 420L50 700L410 700L550 560L550 140L410 0L50 0M270 190L330 190L330 510L270 510L270 420L300 420L300 280L270 280L270 190Z"  horiz-adv-x="575" vert-adv-y="1000"  />

      
      <glyph glyph-name="unif0" unicode="&#xf0;" d="M160 0L30 130L30 402L295 480L253 528L80 479L80 582L180 610L100 700L320 700L355 659L500 700L500 597L425 576L530 452L530 130L400 0L160 0M310 374L250 348L250 180L310 180L310 374Z"  horiz-adv-x="560" vert-adv-y="1000"  />

      
      <glyph glyph-name="uni0189" unicode="&#x0189;" d="M50 0L50 700L410 700L550 560L550 140L410 0L50 0M270 190L330 190L330 510L270 510L270 190Z"  horiz-adv-x="575" vert-adv-y="1000"  />

      
      <glyph glyph-name="uni0256" unicode="&#x0256;" d="M530 50L570 50L570-140L400-140L310-50L310 0L170 0L30 140L30 420L170 560L310 560L310 700L530 700L530 50M250 380L250 180L310 180L310 380L250 380Z"  horiz-adv-x="560" vert-adv-y="1000"  />

      
      <glyph glyph-name="uni018A" unicode="&#x018A;" d="M180 530L180 420L10 420L10 580L130 700L575 700L715 560L715 140L575 0L215 0L215 530L180 530M435 190L495 190L495 510L435 510L435 190Z"  horiz-adv-x="740" vert-adv-y="1000"  />

      
      <glyph glyph-name="uni0257" unicode="&#x0257;" d="M30 140L30 420L170 560L310 560L310 620L390 700L570 700L570 540L530 540L530 0L170 0L30 140M250 180L310 180L310 380L250 380L250 180Z"  horiz-adv-x="560" vert-adv-y="1000"  />

      
      <glyph glyph-name="unic9" unicode="&#xc9;" d="M30 0L30 700L410 700L410 520L250 520L250 440L390 440L390 270L250 270L250 180L420 180L420 0L30 0M100 740L100 840L370 870L370 740L100 740Z"  horiz-adv-x="440" vert-adv-y="1000"  />

      
      <glyph glyph-name="unie9" unicode="&#xe9;" d="M30 130L30 430L160 560L490 560L490 240L250 240L250 180L480 180L480 0L160 0L30 130M250 330L310 340L310 400L250 400L250 330M155 600L155 700L425 730L425 600L155 600Z"  horiz-adv-x="520" vert-adv-y="1000"  />

      
      <glyph glyph-name="unic8" unicode="&#xc8;" d="M30 0L30 700L410 700L410 520L250 520L250 440L390 440L390 270L250 270L250 180L420 180L420 0L30 0M340 740L70 740L70 870L340 840L340 740Z"  horiz-adv-x="440" vert-adv-y="1000"  />

      
      <glyph glyph-name="unie8" unicode="&#xe8;" d="M30 130L30 430L160 560L490 560L490 240L250 240L250 180L480 180L480 0L160 0L30 130M250 330L310 340L310 400L250 400L250 330M395 600L125 600L125 730L395 700L395 600Z"  horiz-adv-x="520" vert-adv-y="1000"  />

      
      <glyph glyph-name="uni0114" unicode="&#x0114;" d="M30 0L30 700L410 700L410 520L250 520L250 440L390 440L390 270L250 270L250 180L420 180L420 0L30 0M250 880L400 880L300 730L140 730L40 880L190 880L190 820L250 820L250 880Z"  horiz-adv-x="440" vert-adv-y="1000"  />

      
      <glyph glyph-name="uni0115" unicode="&#x0115;" d="M30 130L30 430L160 560L490 560L490 240L250 240L250 180L480 180L480 0L160 0L30 130M250 330L310 340L310 400L250 400L250 330M305 740L455 740L355 590L195 590L95 740L245 740L245 680L305 680L305 740Z"  horiz-adv-x="520" vert-adv-y="1000"  />

      
      <glyph glyph-name="unica" unicode="&#xca;" d="M30 0L30 700L410 700L410 520L250 520L250 440L390 440L390 270L250 270L250 180L420 180L420 0L30 0M70 730L70 850L220 910L370 850L370 730L220 790L70 730Z"  horiz-adv-x="440" vert-adv-y="1000"  />

      
      <glyph glyph-name="uniea" unicode="&#xea;" d="M30 130L30 430L160 560L490 560L490 240L250 240L250 180L480 180L480 0L160 0L30 130M250 330L310 340L310 400L250 400L250 330M125 590L125 710L275 770L425 710L425 590L275 650L125 590Z"  horiz-adv-x="520" vert-adv-y="1000"  />

      
      <glyph glyph-name="uni011A" unicode="&#x011A;" d="M30 0L30 700L410 700L410 520L250 520L250 440L390 440L390 270L250 270L250 180L420 180L420 0L30 0M370 910L370 790L220 730L70 790L70 910L220 850L370 910Z"  horiz-adv-x="440" vert-adv-y="1000"  />

      
      <glyph glyph-name="uni011B" unicode="&#x011B;" d="M30 130L30 430L160 560L490 560L490 240L250 240L250 180L480 180L480 0L160 0L30 130M250 330L310 340L310 400L250 400L250 330M425 770L425 650L275 590L125 650L125 770L275 710L425 770Z"  horiz-adv-x="520" vert-adv-y="1000"  />

      
      <glyph glyph-name="unicb" unicode="&#xcb;" d="M30 0L30 700L410 700L410 520L250 520L250 440L390 440L390 270L250 270L250 180L420 180L420 0L30 0M55 740L55 870L195 870L195 740L55 740M245 740L245 870L385 870L385 740L245 740Z"  horiz-adv-x="440" vert-adv-y="1000"  />

      
      <glyph glyph-name="unieb" unicode="&#xeb;" d="M30 130L30 430L160 560L490 560L490 240L250 240L250 180L480 180L480 0L160 0L30 130M250 330L310 340L310 400L250 400L250 330M110 600L110 730L250 730L250 600L110 600M300 600L300 730L440 730L440 600L300 600Z"  horiz-adv-x="520" vert-adv-y="1000"  />

      
      <glyph glyph-name="uni0116" unicode="&#x0116;" d="M30 0L30 700L410 700L410 520L250 520L250 440L390 440L390 270L250 270L250 180L420 180L420 0L30 0M110 740L110 870L330 870L330 740L110 740Z"  horiz-adv-x="440" vert-adv-y="1000"  />

      
      <glyph glyph-name="uni0117" unicode="&#x0117;" d="M30 130L30 430L160 560L490 560L490 240L250 240L250 180L480 180L480 0L160 0L30 130M250 330L310 340L310 400L250 400L250 330M165 600L165 730L385 730L385 600L165 600Z"  horiz-adv-x="520" vert-adv-y="1000"  />

      
      <glyph glyph-name="uni0118" unicode="&#x0118;" d="M30 0L30 700L410 700L410 520L250 520L250 440L390 440L390 270L250 270L250 180L420 180L420 0L30 0M405-40L365-200L175-200L255-40L405-40Z"  horiz-adv-x="440" vert-adv-y="1000"  />

      
      <glyph glyph-name="uni0119" unicode="&#x0119;" d="M30 130L30 430L160 560L490 560L490 240L250 240L250 180L480 180L480 0L160 0L30 130M250 330L310 340L310 400L250 400L250 330M454-40L414-200L224-200L304-40L454-40Z"  horiz-adv-x="520" vert-adv-y="1000"  />

      
      <glyph glyph-name="uni0112" unicode="&#x0112;" d="M30 0L30 700L410 700L410 520L250 520L250 440L390 440L390 270L250 270L250 180L420 180L420 0L30 0M70 740L70 870L370 870L370 740L70 740Z"  horiz-adv-x="440" vert-adv-y="1000"  />

      
      <glyph glyph-name="uni0113" unicode="&#x0113;" d="M30 130L30 430L160 560L490 560L490 240L250 240L250 180L480 180L480 0L160 0L30 130M250 330L310 340L310 400L250 400L250 330M125 600L125 730L425 730L425 600L125 600Z"  horiz-adv-x="520" vert-adv-y="1000"  />

      
      <glyph glyph-name="uni0204" unicode="&#x0204;" d="M30 0L30 700L410 700L410 520L250 520L250 440L390 440L390 270L250 270L250 180L420 180L420 0L30 0M315 870L355 730L255 730L175 870L315 870M150 870L210 730L110 730L10 870L150 870Z"  horiz-adv-x="440" vert-adv-y="1000"  />

      
      <glyph glyph-name="uni0205" unicode="&#x0205;" d="M30 130L30 430L160 560L490 560L490 240L250 240L250 180L480 180L480 0L160 0L30 130M250 330L310 340L310 400L250 400L250 330M370 730L410 590L310 590L230 730L370 730M205 730L265 590L165 590L65 730L205 730Z"  horiz-adv-x="520" vert-adv-y="1000"  />

      
      <glyph glyph-name="uni0206" unicode="&#x0206;" d="M30 0L30 700L410 700L410 520L250 520L250 440L390 440L390 270L250 270L250 180L420 180L420 0L30 0M190 725L40 725L140 875L300 875L400 725L250 725L250 785L190 785L190 725Z"  horiz-adv-x="440" vert-adv-y="1000"  />

      
      <glyph glyph-name="uni0207" unicode="&#x0207;" d="M30 130L30 430L160 560L490 560L490 240L250 240L250 180L480 180L480 0L160 0L30 130M250 330L310 340L310 400L250 400L250 330M245 585L95 585L195 735L355 735L455 585L305 585L305 645L245 645L245 585Z"  horiz-adv-x="520" vert-adv-y="1000"  />

      
      <glyph glyph-name="uni018F" unicode="&#x018F;" d="M515 570L515 130L385 0L155 0L25 130L25 440L295 440L295 520L35 520L35 700L385 700L515 570M295 310L235 300L235 180L295 180L295 310Z"  horiz-adv-x="540" vert-adv-y="1000"  />

      
      <glyph glyph-name="uni0259" unicode="&#x0259;" d="M490 430L490 130L360 0L160 0L30 130L30 320L270 320L270 380L40 380L40 560L360 560L490 430M270 230L210 220L210 160L270 160L270 230Z"  horiz-adv-x="520" vert-adv-y="1000"  />

      
      <glyph glyph-name="uni0190" unicode="&#x0190;" d="M155 0L475 0L475 180L243 180L243 270L435 270L435 440L263 440L263 520L470 520L470 700L175 700L35 560L35 419L102 366L15 296L15 140L155 0Z"  horiz-adv-x="495" vert-adv-y="1000"  />

      
      <glyph glyph-name="uni025B" unicode="&#x025B;" d="M110 0L20 90L20 230L96 296L40 342L40 470L130 560L450 560L450 390L265 390L265 345L440 345L440 215L255 215L255 170L460 170L460 0L110 0Z"  horiz-adv-x="480" vert-adv-y="1000"  />

      
      <glyph glyph-name="uni1E1E" unicode="&#x1E1E;" d="M30 0L30 700L400 700L400 500L250 500L250 380L380 380L380 190L250 190L250 0L30 0M100 740L100 870L320 870L320 740L100 740Z"  horiz-adv-x="420" vert-adv-y="1000"  />

      
      <glyph glyph-name="uni1E1F" unicode="&#x1E1F;" d="M30 0L30 570L160 700L370 700L370 510L250 510L250 430L370 430L370 250L250 250L250 0L30 0M100 740L100 870L320 870L320 740L100 740Z"  horiz-adv-x="390" vert-adv-y="1000"  />

      
      <glyph glyph-name="uni0191" unicode="&#x0191;" d="M0 0L0 190L30 190L30 700L400 700L400 500L250 500L250 400L380 400L380 210L250 210L250 110L140 0L0 0Z"  horiz-adv-x="420" vert-adv-y="1000"  />

      
      <glyph glyph-name="uni0192" unicode="&#x0192;" d="M-10-140L-10 50L30 50L30 570L160 700L370 700L370 510L250 510L250 420L370 420L370 240L250 240L250-10L120-140L-10-140Z"  horiz-adv-x="390" vert-adv-y="1000"  />

      
      <glyph glyph-name="uni01F4" unicode="&#x01F4;" d="M25 140L25 560L165 700L485 700L485 500L245 500L245 200L305 200L305 265L275 265L275 435L495 435L495 0L165 0L25 140M190 740L190 840L460 870L460 740L190 740Z"  horiz-adv-x="520" vert-adv-y="1000"  />

      
      <glyph glyph-name="uni01F5" unicode="&#x01F5;" d="M60-140L60 40L310 40L310 80L160 80L30 210L30 430L160 560L530 560L530 24L366-140L60-140M250 380L250 250L310 250L310 380L250 380M180 600L180 700L450 730L450 600L180 600Z"  horiz-adv-x="560" vert-adv-y="1000"  />

      
      <glyph glyph-name="uni011E" unicode="&#x011E;" d="M25 140L25 560L165 700L485 700L485 500L245 500L245 200L305 200L305 265L275 265L275 435L495 435L495 0L165 0L25 140M340 880L490 880L390 730L230 730L130 880L280 880L280 820L340 820L340 880Z"  horiz-adv-x="520" vert-adv-y="1000"  />

      
      <glyph glyph-name="uni011F" unicode="&#x011F;" d="M60-140L60 40L310 40L310 80L160 80L30 210L30 430L160 560L530 560L530 24L366-140L60-140M250 380L250 250L310 250L310 380L250 380M330 740L480 740L380 590L220 590L120 740L270 740L270 680L330 680L330 740Z"  horiz-adv-x="560" vert-adv-y="1000"  />

      
      <glyph glyph-name="uni011C" unicode="&#x011C;" d="M25 140L25 560L165 700L485 700L485 500L245 500L245 200L305 200L305 265L275 265L275 435L495 435L495 0L165 0L25 140M160 730L160 850L310 910L460 850L460 730L310 790L160 730Z"  horiz-adv-x="520" vert-adv-y="1000"  />

      
      <glyph glyph-name="uni011D" unicode="&#x011D;" d="M60-140L60 40L310 40L310 80L160 80L30 210L30 430L160 560L530 560L530 24L366-140L60-140M250 380L250 250L310 250L310 380L250 380M150 590L150 710L300 770L450 710L450 590L300 650L150 590Z"  horiz-adv-x="560" vert-adv-y="1000"  />

      
      <glyph glyph-name="uni01E6" unicode="&#x01E6;" d="M25 140L25 560L165 700L485 700L485 500L245 500L245 200L305 200L305 265L275 265L275 435L495 435L495 0L165 0L25 140M460 910L460 790L310 730L160 790L160 910L310 850L460 910Z"  horiz-adv-x="520" vert-adv-y="1000"  />

      
      <glyph glyph-name="uni01E7" unicode="&#x01E7;" d="M60-140L60 40L310 40L310 80L160 80L30 210L30 430L160 560L530 560L530 24L366-140L60-140M250 380L250 250L310 250L310 380L250 380M450 770L450 650L300 590L150 650L150 770L300 710L450 770Z"  horiz-adv-x="560" vert-adv-y="1000"  />

      
      <glyph glyph-name="uni0120" unicode="&#x0120;" d="M25 140L25 560L165 700L485 700L485 500L245 500L245 200L305 200L305 265L275 265L275 435L495 435L495 0L165 0L25 140M200 740L200 870L420 870L420 740L200 740Z"  horiz-adv-x="520" vert-adv-y="1000"  />

      
      <glyph glyph-name="uni0121" unicode="&#x0121;" d="M60-140L60 40L310 40L310 80L160 80L30 210L30 430L160 560L530 560L530 24L366-140L60-140M250 380L250 250L310 250L310 380L250 380M190 600L190 730L410 730L410 600L190 600Z"  horiz-adv-x="560" vert-adv-y="1000"  />

      
      <glyph glyph-name="uni0122" unicode="&#x0122;" d="M25 140L25 560L165 700L485 700L485 500L245 500L245 200L305 200L305 265L275 265L275 435L495 435L495 0L165 0L25 140M195-200L235-50L425-50L345-200L195-200Z"  horiz-adv-x="520" vert-adv-y="1000"  />

      
      <glyph glyph-name="uni0123" unicode="&#x0123;" d="M60-140L60 40L310 40L310 80L160 80L30 210L30 430L160 560L530 560L530 24L366-140L60-140M250 380L250 250L310 250L310 380L250 380M420 750L380 600L190 600L270 750L420 750Z"  horiz-adv-x="560" vert-adv-y="1000"  />

      
      <glyph glyph-name="uni01E4" unicode="&#x01E4;" d="M25 140L25 560L165 700L485 700L485 500L245 500L245 180L305 180L305 214L270 214L270 290L305 290L305 325L270 325L270 435L495 435L495 290L515 290L515 214L495 214L495 0L165 0L25 140Z"  horiz-adv-x="520" vert-adv-y="1000"  />

      
      <glyph glyph-name="uni01E5" unicode="&#x01E5;" d="M90 60L90 126L310 126L310 156L90 156L30 216L30 430L160 560L530 560L530 126L555 126L555 60L530 60L530 24L366-140L60-140L60 30L310 30L310 60L90 60M250 380L250 270L310 270L310 380L250 380Z"  horiz-adv-x="560" vert-adv-y="1000"  />

      
      <glyph glyph-name="uni0193" unicode="&#x0193;" d="M165 0L25 140L25 560L165 700L295 700L295 770L385 860L530 860L530 670L485 670L485 500L245 500L245 200L305 200L305 265L275 265L275 435L495 435L495 0L165 0Z"  horiz-adv-x="520" vert-adv-y="1000"  />

      
      <glyph glyph-name="uni0260" unicode="&#x0260;" d="M60-140L60 40L310 40L310 80L160 80L30 210L30 430L160 560L310 560L310 620L390 700L560 700L560 540L520 540L520 24L356-140L60-140M250 250L310 250L310 380L250 380L250 250Z"  horiz-adv-x="560" vert-adv-y="1000"  />

      
      <glyph glyph-name="uni0194" unicode="&#x0194;" d="M165 0L35 130L35 285L110 406L0 700L247 700L269 455L281 455L303 700L550 700L440 406L515 285L515 130L385 0L165 0M245 180L305 180L305 257L275 313L245 257L245 180Z"  horiz-adv-x="550" vert-adv-y="1000"  />

      
      <glyph glyph-name="uni0263" unicode="&#x0263;" d="M155-140L45-30L45 145L110 226L0 560L247 560L267 305L283 305L303 560L550 560L440 226L505 145L505-30L395-140L155-140M245 30L305 30L305 117L275 163L245 117L245 30Z"  horiz-adv-x="550" vert-adv-y="1000"  />

      
      <glyph glyph-name="uni0124" unicode="&#x0124;" d="M30 0L30 700L250 700L250 460L310 460L310 700L530 700L530 0L310 0L310 260L250 260L250 0L30 0M130 730L130 850L280 910L430 850L430 730L280 790L130 730Z"  horiz-adv-x="560" vert-adv-y="1000"  />

      
      <glyph glyph-name="uni0125" unicode="&#x0125;" d="M30 0L30 700L250 700L250 560L390 560L530 420L530 0L310 0L310 380L250 380L250 0L30 0M100 730L100 850L250 910L400 850L400 730L250 790L100 730Z"  horiz-adv-x="560" vert-adv-y="1000"  />

      
      <glyph glyph-name="uni021E" unicode="&#x021E;" d="M30 0L30 700L250 700L250 460L310 460L310 700L530 700L530 0L310 0L310 260L250 260L250 0L30 0M430 910L430 790L280 730L130 790L130 910L280 850L430 910Z"  horiz-adv-x="560" vert-adv-y="1000"  />

      
      <glyph glyph-name="uni021F" unicode="&#x021F;" d="M30 0L30 700L250 700L250 560L390 560L530 420L530 0L310 0L310 380L250 380L250 0L30 0M400 910L400 790L250 730L100 790L100 910L250 850L400 910Z"  horiz-adv-x="560" vert-adv-y="1000"  />

      
      <glyph glyph-name="uni0126" unicode="&#x0126;" d="M30 0L30 544L5 544L5 620L30 620L30 700L250 700L250 620L310 620L310 700L530 700L530 620L555 620L555 544L530 544L530 0L310 0L310 260L250 260L250 0L30 0M250 460L310 460L310 544L250 544L250 460Z"  horiz-adv-x="560" vert-adv-y="1000"  />

      
      <glyph glyph-name="uni0127" unicode="&#x0127;" d="M30 0L30 700L250 700L250 640L445 640L445 564L250 564L250 510L390 510L530 370L530 0L310 0L310 330L250 330L250 0L30 0Z"  horiz-adv-x="560" vert-adv-y="1000"  />

      
      <glyph glyph-name="uni1E24" unicode="&#x1E24;" d="M30 0L30 700L250 700L250 460L310 460L310 700L530 700L530 0L310 0L310 260L250 260L250 0L30 0M170-190L170-60L390-60L390-190L170-190Z"  horiz-adv-x="560" vert-adv-y="1000"  />

      
      <glyph glyph-name="uni1E25" unicode="&#x1E25;" d="M30 0L30 700L250 700L250 560L390 560L530 420L530 0L310 0L310 380L250 380L250 0L30 0M190-190L190-60L410-60L410-190L190-190Z"  horiz-adv-x="560" vert-adv-y="1000"  />

      
      <glyph glyph-name="unicd" unicode="&#xcd;" d="M15-4L15 161L65 166L65 534L15 539L15 704L175 696L335 704L335 539L285 534L285 166L335 161L335-4L175 4L15-4M55 740L55 840L325 870L325 740L55 740Z"  horiz-adv-x="350" vert-adv-y="1000"  />

      
      <glyph glyph-name="unied" unicode="&#xed;" d="M30 0L30 560L250 560L250 0L30 0M30 590L30 690L270 730L270 600L30 590Z"  horiz-adv-x="280" vert-adv-y="1000"  />

      
      <glyph glyph-name="unicc" unicode="&#xcc;" d="M15-4L15 161L65 166L65 534L15 539L15 704L175 696L335 704L335 539L285 534L285 166L335 161L335-4L175 4L15-4M295 740L25 740L25 870L295 840L295 740Z"  horiz-adv-x="350" vert-adv-y="1000"  />

      
      <glyph glyph-name="uniec" unicode="&#xec;" d="M30 0L30 560L250 560L250 0L30 0M250 590L10 600L10 730L250 690L250 590Z"  horiz-adv-x="280" vert-adv-y="1000"  />

      
      <glyph glyph-name="uni012C" unicode="&#x012C;" d="M15-4L15 161L65 166L65 534L15 539L15 704L175 696L335 704L335 539L285 534L285 166L335 161L335-4L175 4L15-4M205 880L355 880L255 730L95 730L-5 880L145 880L145 820L205 820L205 880Z"  horiz-adv-x="350" vert-adv-y="1000"  />

      
      <glyph glyph-name="uni012D" unicode="&#x012D;" d="M30 0L30 560L250 560L250 0L30 0M170 740L320 740L220 590L60 590L-40 740L110 740L110 680L170 680L170 740Z"  horiz-adv-x="280" vert-adv-y="1000"  />

      
      <glyph glyph-name="unice" unicode="&#xce;" d="M15-4L15 161L65 166L65 534L15 539L15 704L175 696L335 704L335 539L285 534L285 166L335 161L335-4L175 4L15-4M25 730L25 850L175 910L325 850L325 730L175 790L25 730Z"  horiz-adv-x="350" vert-adv-y="1000"  />

      
      <glyph glyph-name="uniee" unicode="&#xee;" d="M30 0L30 560L250 560L250 0L30 0M-10 590L-10 710L140 770L290 710L290 590L140 650L-10 590Z"  horiz-adv-x="280" vert-adv-y="1000"  />

      
      <glyph glyph-name="uni01CF" unicode="&#x01CF;" d="M15-4L15 161L65 166L65 534L15 539L15 704L175 696L335 704L335 539L285 534L285 166L335 161L335-4L175 4L15-4M325 910L325 790L175 730L25 790L25 910L175 850L325 910Z"  horiz-adv-x="350" vert-adv-y="1000"  />

      
      <glyph glyph-name="uni01D0" unicode="&#x01D0;" d="M30 0L30 560L250 560L250 0L30 0M290 770L290 650L140 590L-10 650L-10 770L140 710L290 770Z"  horiz-adv-x="280" vert-adv-y="1000"  />

      
      <glyph glyph-name="unicf" unicode="&#xcf;" d="M15-4L15 161L65 166L65 534L15 539L15 704L175 696L335 704L335 539L285 534L285 166L335 161L335-4L175 4L15-4M10 740L10 870L150 870L150 740L10 740M200 740L200 870L340 870L340 740L200 740Z"  horiz-adv-x="350" vert-adv-y="1000"  />

      
      <glyph glyph-name="unief" unicode="&#xef;" d="M30 0L30 560L250 560L250 0L30 0M-10 600L-10 730L125 730L125 600L-10 600M155 600L155 730L290 730L290 600L155 600Z"  horiz-adv-x="280" vert-adv-y="1000"  />

      
      <glyph glyph-name="uni0128" unicode="&#x0128;" d="M15-4L15 161L65 166L65 534L15 539L15 704L175 696L335 704L335 539L285 534L285 166L335 161L335-4L175 4L15-4M35 710L15 825L115 885L219 845L315 890L335 775L235 715L131 755L35 710Z"  horiz-adv-x="350" vert-adv-y="1000"  />

      
      <glyph glyph-name="uni0129" unicode="&#x0129;" d="M-10 570L-10 685L70 745L214 705L290 750L290 635L210 575L66 615L-10 570M30 0L30 560L250 560L250 0L30 0Z"  horiz-adv-x="280" vert-adv-y="1000"  />

      
      <glyph glyph-name="uni0130" unicode="&#x0130;" d="M15-4L15 161L65 166L65 534L15 539L15 704L175 696L335 704L335 539L285 534L285 166L335 161L335-4L175 4L15-4M65 740L65 870L285 870L285 740L65 740Z"  horiz-adv-x="350" vert-adv-y="1000"  />

      
      <glyph glyph-name="uni0131" unicode="&#x0131;" d="M30 0L30 560L250 560L250 0L30 0Z"  horiz-adv-x="280" vert-adv-y="1000"  />

      
      <glyph glyph-name="uni012E" unicode="&#x012E;" d="M35-4L35 161L85 166L85 534L35 539L35 704L195 696L355 704L355 539L305 534L305 166L355 161L355-4L195 4L35-4M290-40L250-200L60-200L140-40L290-40Z"  horiz-adv-x="390" vert-adv-y="1000"  />

      
      <glyph glyph-name="uni012F" unicode="&#x012F;" d="M30 600L30 730L250 730L250 600L30 600M30 0L30 560L250 560L250 0L30 0M235-40L195-200L5-200L85-40L235-40Z"  horiz-adv-x="280" vert-adv-y="1000"  />

      
      <glyph glyph-name="uni012A" unicode="&#x012A;" d="M15-4L15 161L65 166L65 534L15 539L15 704L175 696L335 704L335 539L285 534L285 166L335 161L335-4L175 4L15-4M25 740L25 870L325 870L325 740L25 740Z"  horiz-adv-x="350" vert-adv-y="1000"  />

      
      <glyph glyph-name="uni012B" unicode="&#x012B;" d="M0 600L0 730L280 730L280 600L0 600M30 0L30 560L250 560L250 0L30 0Z"  horiz-adv-x="280" vert-adv-y="1000"  />

      
      <glyph glyph-name="uni0208" unicode="&#x0208;" d="M15-4L15 161L65 166L65 534L15 539L15 704L175 696L335 704L335 539L285 534L285 166L335 161L335-4L175 4L15-4M270 870L310 730L210 730L130 870L270 870M105 870L165 730L65 730L-35 870L105 870Z"  horiz-adv-x="350" vert-adv-y="1000"  />

      
      <glyph glyph-name="uni0209" unicode="&#x0209;" d="M30 0L30 560L250 560L250 0L30 0M235 730L275 590L175 590L95 730L235 730M70 730L130 590L30 590L-70 730L70 730Z"  horiz-adv-x="280" vert-adv-y="1000"  />

      
      <glyph glyph-name="uni020A" unicode="&#x020A;" d="M15-4L15 161L65 166L65 534L15 539L15 704L175 696L335 704L335 539L285 534L285 166L335 161L335-4L175 4L15-4M145 725L-5 725L95 875L255 875L355 725L205 725L205 785L145 785L145 725Z"  horiz-adv-x="350" vert-adv-y="1000"  />

      
      <glyph glyph-name="uni020B" unicode="&#x020B;" d="M30 0L30 560L250 560L250 0L30 0M110 585L-40 585L60 735L220 735L320 585L170 585L170 645L110 645L110 585Z"  horiz-adv-x="280" vert-adv-y="1000"  />

      
      <glyph glyph-name="uni0132" unicode="&#x0132;" d="M15-4L15 161L55 166L55 534L15 539L15 704L165 696L315 704L315 539L275 534L275 166L315 161L315-4L165 4L15-4M345 120L345 350L545 350L545 190L595 190L595 510L365 510L365 700L815 700L815 140L675 0L465 0L345 120Z"  horiz-adv-x="840" vert-adv-y="1000"  />

      
      <glyph glyph-name="uni0133" unicode="&#x0133;" d="M30 600L30 730L250 730L250 600L30 600M30 0L30 560L250 560L250 0L30 0M310 600L310 730L530 730L530 600L310 600M310-140L310 560L530 560L530-140L310-140Z"  horiz-adv-x="560" vert-adv-y="1000"  />

      
      <glyph glyph-name="uni0197" unicode="&#x0197;" d="M15-4L15 161L65 166L65 295L25 295L25 405L65 405L65 534L15 539L15 704L175 696L335 704L335 539L285 534L285 405L325 405L325 295L285 295L285 166L335 161L335-4L175 4L15-4Z"  horiz-adv-x="350" vert-adv-y="1000"  />

      
      <glyph glyph-name="uni0268" unicode="&#x0268;" d="M30 600L30 730L250 730L250 600L30 600M30 0L30 240L5 240L5 350L30 350L30 560L250 560L250 350L275 350L275 240L250 240L250 0L30 0Z"  horiz-adv-x="280" vert-adv-y="1000"  />

      
      <glyph glyph-name="uni0134" unicode="&#x0134;" d="M15 140L15 350L235 350L235 190L285 190L285 510L55 510L55 700L505 700L505 140L365 0L155 0L15 140M140 730L140 850L290 910L440 850L440 730L290 790L140 730Z"  horiz-adv-x="530" vert-adv-y="1000"  />

      
      <glyph glyph-name="uni0135" unicode="&#x0135;" d="M30-140L30 560L250 560L250-140L30-140M-10 590L-10 710L140 770L290 710L290 590L140 650L-10 590Z"  horiz-adv-x="280" vert-adv-y="1000"  />

      
      <glyph glyph-name="uni0237" unicode="&#x0237;" d="M30-140L30 560L250 560L250-140L30-140Z"  horiz-adv-x="280" vert-adv-y="1000"  />

      
      <glyph glyph-name="uni01E8" unicode="&#x01E8;" d="M30 0L30 700L250 700L250 446L272 446L326 700L565 700L460 370L580 0L338 0L277 264L250 264L250 0L30 0M440 910L440 790L290 730L140 790L140 910L290 850L440 910Z"  horiz-adv-x="580" vert-adv-y="1000"  />

      
      <glyph glyph-name="uni01E9" unicode="&#x01E9;" d="M30 0L30 700L250 700L250 381L281 381L322 560L550 560L463 301L560 0L329 0L284 201L250 201L250 0L30 0M400 910L400 790L250 730L100 790L100 910L250 850L400 910Z"  horiz-adv-x="570" vert-adv-y="1000"  />

      
      <glyph glyph-name="uni0136" unicode="&#x0136;" d="M30 0L30 700L250 700L250 446L272 446L326 700L565 700L460 370L580 0L338 0L277 264L250 264L250 0L30 0M175-200L215-50L405-50L325-200L175-200Z"  horiz-adv-x="580" vert-adv-y="1000"  />

      
      <glyph glyph-name="uni0137" unicode="&#x0137;" d="M30 0L30 700L250 700L250 381L281 381L322 560L550 560L463 301L560 0L329 0L284 201L250 201L250 0L30 0M170-200L210-50L400-50L320-200L170-200Z"  horiz-adv-x="570" vert-adv-y="1000"  />

      
      <glyph glyph-name="uni0198" unicode="&#x0198;" d="M30 0L30 600L130 700L275 700L275 540L250 540L250 450L275 450L330 700L565 700L460 370L580 0L332 0L270 260L250 260L250 0L30 0Z"  horiz-adv-x="580" vert-adv-y="1000"  />

      
      <glyph glyph-name="uni0199" unicode="&#x0199;" d="M30 0L30 570L160 700L300 700L300 540L250 540L250 381L279 381L323 560L552 560L463 301L560 0L329 0L284 201L250 201L250 0L30 0Z"  horiz-adv-x="570" vert-adv-y="1000"  />

      
      <glyph glyph-name="uni0139" unicode="&#x0139;" d="M30 0L30 700L250 700L250 180L300 180L300 280L490 280L490 0L30 0M30 740L30 840L300 870L300 740L30 740Z"  horiz-adv-x="510" vert-adv-y="1000"  />

      
      <glyph glyph-name="uni013A" unicode="&#x013A;" d="M30 0L30 700L250 700L250 0L30 0M30 730L30 830L270 870L270 740L30 730Z"  horiz-adv-x="280" vert-adv-y="1000"  />

      
      <glyph glyph-name="uni013D" unicode="&#x013D;" d="M30 0L30 700L250 700L250 180L300 180L300 280L490 280L490 0L30 0M300 460L300 700L366 700L366 460L300 460Z"  horiz-adv-x="510" vert-adv-y="1000"  />

      
      <glyph glyph-name="uni013E" unicode="&#x013E;" d="M30 0L30 700L250 700L250 0L30 0M280 460L280 700L346 700L346 460L280 460Z"  horiz-adv-x="346" vert-adv-y="1000"  />

      
      <glyph glyph-name="uni013B" unicode="&#x013B;" d="M30 0L30 700L250 700L250 180L300 180L300 280L490 280L490 0L30 0M150-200L190-50L380-50L300-200L150-200Z"  horiz-adv-x="510" vert-adv-y="1000"  />

      
      <glyph glyph-name="uni013C" unicode="&#x013C;" d="M30 0L30 700L250 700L250 0L30 0M25-200L65-50L255-50L175-200L25-200Z"  horiz-adv-x="280" vert-adv-y="1000"  />

      
      <glyph glyph-name="uni0141" unicode="&#x0141;" d="M30 0L30 700L250 700L250 487L425 580L425 410L250 317L250 180L300 180L300 280L490 280L490 0L30 0Z"  horiz-adv-x="510" vert-adv-y="1000"  />

      
      <glyph glyph-name="uni0142" unicode="&#x0142;" d="M60 0L60 190L5 160L5 360L60 390L60 700L280 700L280 510L335 540L335 340L280 310L280 0L60 0Z"  horiz-adv-x="340" vert-adv-y="1000"  />

      
      <glyph glyph-name="uni1E36" unicode="&#x1E36;" d="M30 0L30 700L250 700L250 180L300 180L300 280L490 280L490 0L30 0M155-190L155-60L375-60L375-190L155-190Z"  horiz-adv-x="510" vert-adv-y="1000"  />

      
      <glyph glyph-name="uni1E37" unicode="&#x1E37;" d="M30 0L30 700L250 700L250 0L30 0M30-190L30-60L250-60L250-190L30-190Z"  horiz-adv-x="280" vert-adv-y="1000"  />

      
      <glyph glyph-name="uni1E3A" unicode="&#x1E3A;" d="M30 0L30 700L250 700L250 180L300 180L300 280L490 280L490 0L30 0M115-170L115-40L415-40L415-170L115-170Z"  horiz-adv-x="510" vert-adv-y="1000"  />

      
      <glyph glyph-name="uni1E3B" unicode="&#x1E3B;" d="M30 0L30 700L250 700L250 0L30 0M-10-170L-10-40L290-40L290-170L-10-170Z"  horiz-adv-x="280" vert-adv-y="1000"  />

      
      <glyph glyph-name="uni013F" unicode="&#x013F;" d="M30 0L30 700L250 700L250 180L300 180L300 280L490 280L490 0L30 0M300 350L300 550L490 550L490 350L300 350Z"  horiz-adv-x="510" vert-adv-y="1000"  />

      
      <glyph glyph-name="uni0140" unicode="&#x0140;" d="M30 0L30 700L250 700L250 0L30 0M280 260L280 460L400 460L400 260L280 260Z"  horiz-adv-x="400" vert-adv-y="1000"  />

      
      <glyph glyph-name="uni1E3E" unicode="&#x1E3E;" d="M30 0L30 700L240 700L320 460L400 700L610 700L610 0L400 0L400 350L340 170L300 170L240 350L240 0L30 0M200 740L200 840L470 870L470 740L200 740Z"  horiz-adv-x="640" vert-adv-y="1000"  />

      
      <glyph glyph-name="uni1E3F" unicode="&#x1E3F;" d="M30 560L645 560L785 420L785 0L570 0L570 390L510 390L510 0L305 0L305 390L245 390L245 0L30 0L30 560M288 600L288 700L558 730L558 600L288 600Z"  horiz-adv-x="815" vert-adv-y="1000"  />

      
      <glyph glyph-name="uni1E40" unicode="&#x1E40;" d="M30 0L30 700L240 700L320 460L400 700L610 700L610 0L400 0L400 350L340 170L300 170L240 350L240 0L30 0M210 740L210 870L430 870L430 740L210 740Z"  horiz-adv-x="640" vert-adv-y="1000"  />

      
      <glyph glyph-name="uni1E41" unicode="&#x1E41;" d="M30 560L645 560L785 420L785 0L570 0L570 390L510 390L510 0L305 0L305 390L245 390L245 0L30 0L30 560M298 600L298 730L518 730L518 600L298 600Z"  horiz-adv-x="815" vert-adv-y="1000"  />

      
      <glyph glyph-name="uni0143" unicode="&#x0143;" d="M30 0L30 700L200 700L330 385L330 700L530 700L530 0L360 0L230 315L230 0L30 0M160 740L160 840L430 870L430 740L160 740Z"  horiz-adv-x="560" vert-adv-y="1000"  />

      
      <glyph glyph-name="uni0144" unicode="&#x0144;" d="M30 0L30 560L390 560L530 420L530 0L310 0L310 370L250 370L250 0L30 0M160 600L160 700L430 730L430 600L160 600Z"  horiz-adv-x="560" vert-adv-y="1000"  />

      
      <glyph glyph-name="uni01F8" unicode="&#x01F8;" d="M30 0L30 700L200 700L330 385L330 700L530 700L530 0L360 0L230 315L230 0L30 0M400 740L130 740L130 870L400 840L400 740Z"  horiz-adv-x="560" vert-adv-y="1000"  />

      
      <glyph glyph-name="uni01F9" unicode="&#x01F9;" d="M30 0L30 560L390 560L530 420L530 0L310 0L310 370L250 370L250 0L30 0M400 600L130 600L130 730L400 700L400 600Z"  horiz-adv-x="560" vert-adv-y="1000"  />

      
      <glyph glyph-name="uni0147" unicode="&#x0147;" d="M30 0L30 700L200 700L330 385L330 700L530 700L530 0L360 0L230 315L230 0L30 0M430 910L430 790L280 730L130 790L130 910L280 850L430 910Z"  horiz-adv-x="560" vert-adv-y="1000"  />

      
      <glyph glyph-name="uni0148" unicode="&#x0148;" d="M30 0L30 560L390 560L530 420L530 0L310 0L310 370L250 370L250 0L30 0M430 770L430 650L280 590L130 650L130 770L280 710L430 770Z"  horiz-adv-x="560" vert-adv-y="1000"  />

      
      <glyph glyph-name="unid1" unicode="&#xd1;" d="M30 0L30 700L200 700L330 385L330 700L530 700L530 0L360 0L230 315L230 0L30 0M140 710L120 825L220 885L324 845L420 890L440 775L340 715L236 755L140 710Z"  horiz-adv-x="560" vert-adv-y="1000"  />

      
      <glyph glyph-name="unif1" unicode="&#xf1;" d="M30 0L30 560L390 560L530 420L530 0L310 0L310 370L250 370L250 0L30 0M140 570L120 685L220 745L324 705L420 750L440 635L340 575L236 615L140 570Z"  horiz-adv-x="560" vert-adv-y="1000"  />

      
      <glyph glyph-name="uni1E44" unicode="&#x1E44;" d="M30 0L30 700L200 700L330 385L330 700L530 700L530 0L360 0L230 315L230 0L30 0M170 740L170 870L390 870L390 740L170 740Z"  horiz-adv-x="560" vert-adv-y="1000"  />

      
      <glyph glyph-name="uni1E45" unicode="&#x1E45;" d="M30 0L30 560L390 560L530 420L530 0L310 0L310 370L250 370L250 0L30 0M170 600L170 730L390 730L390 600L170 600Z"  horiz-adv-x="560" vert-adv-y="1000"  />

      
      <glyph glyph-name="uni0145" unicode="&#x0145;" d="M30 0L30 700L200 700L330 385L330 700L530 700L530 0L360 0L230 315L230 0L30 0M165-200L205-50L395-50L315-200L165-200Z"  horiz-adv-x="560" vert-adv-y="1000"  />

      
      <glyph glyph-name="uni0146" unicode="&#x0146;" d="M30 0L30 560L390 560L530 420L530 0L310 0L310 370L250 370L250 0L30 0M165-200L205-50L395-50L315-200L165-200Z"  horiz-adv-x="560" vert-adv-y="1000"  />

      
      <glyph glyph-name="uni1E48" unicode="&#x1E48;" d="M30 0L30 700L200 700L330 385L330 700L530 700L530 0L360 0L230 315L230 0L30 0M130-170L130-40L430-40L430-170L130-170Z"  horiz-adv-x="560" vert-adv-y="1000"  />

      
      <glyph glyph-name="uni1E49" unicode="&#x1E49;" d="M30 0L30 560L390 560L530 420L530 0L310 0L310 370L250 370L250 0L30 0M130-170L130-40L430-40L430-170L130-170Z"  horiz-adv-x="560" vert-adv-y="1000"  />

      
      <glyph glyph-name="uni019D" unicode="&#x019D;" d="M0 0L0 190L30 190L30 700L200 700L330 385L330 700L530 700L530 0L360 0L230 315L230 90L140 0L0 0Z"  horiz-adv-x="560" vert-adv-y="1000"  />

      
      <glyph glyph-name="uni0272" unicode="&#x0272;" d="M-10-140L-10 50L30 50L30 560L390 560L530 420L530 0L310 0L310 370L250 370L250-10L120-140L-10-140Z"  horiz-adv-x="560" vert-adv-y="1000"  />

      
      <glyph glyph-name="uni014A" unicode="&#x014A;" d="M30 0L30 700L200 700L330 385L330 700L530 700L530-36L406-160L270-160L270-10L360-10L360 0L230 315L230 0L30 0Z"  horiz-adv-x="560" vert-adv-y="1000"  />

      
      <glyph glyph-name="uni014B" unicode="&#x014B;" d="M30 0L30 560L390 560L530 420L530-36L406-160L270-160L270-10L310-10L310 370L250 370L250 0L30 0Z"  horiz-adv-x="560" vert-adv-y="1000"  />

      
      <glyph glyph-name="unid3" unicode="&#xd3;" d="M25 140L25 560L165 700L395 700L535 560L535 140L395 0L165 0L25 140M250 500L250 200L310 200L310 500L250 500M160 740L160 840L430 870L430 740L160 740Z"  horiz-adv-x="560" vert-adv-y="1000"  />

      
      <glyph glyph-name="unif3" unicode="&#xf3;" d="M30 130L30 430L160 560L400 560L530 430L530 130L400 0L160 0L30 130M250 170L310 170L310 390L250 390L250 170M160 600L160 700L430 730L430 600L160 600Z"  horiz-adv-x="560" vert-adv-y="1000"  />

      
      <glyph glyph-name="unid2" unicode="&#xd2;" d="M25 140L25 560L165 700L395 700L535 560L535 140L395 0L165 0L25 140M250 500L250 200L310 200L310 500L250 500M400 740L130 740L130 870L400 840L400 740Z"  horiz-adv-x="560" vert-adv-y="1000"  />

      
      <glyph glyph-name="unif2" unicode="&#xf2;" d="M30 130L30 430L160 560L400 560L530 430L530 130L400 0L160 0L30 130M250 170L310 170L310 390L250 390L250 170M400 600L130 600L130 730L400 700L400 600Z"  horiz-adv-x="560" vert-adv-y="1000"  />

      
      <glyph glyph-name="uni014E" unicode="&#x014E;" d="M25 140L25 560L165 700L395 700L535 560L535 140L395 0L165 0L25 140M250 500L250 200L310 200L310 500L250 500M310 880L460 880L360 730L200 730L100 880L250 880L250 820L310 820L310 880Z"  horiz-adv-x="560" vert-adv-y="1000"  />

      
      <glyph glyph-name="uni014F" unicode="&#x014F;" d="M30 130L30 430L160 560L400 560L530 430L530 130L400 0L160 0L30 130M250 170L310 170L310 390L250 390L250 170M310 740L460 740L360 590L200 590L100 740L250 740L250 680L310 680L310 740Z"  horiz-adv-x="560" vert-adv-y="1000"  />

      
      <glyph glyph-name="unid4" unicode="&#xd4;" d="M25 140L25 560L165 700L395 700L535 560L535 140L395 0L165 0L25 140M250 500L250 200L310 200L310 500L250 500M130 730L130 850L280 910L430 850L430 730L280 790L130 730Z"  horiz-adv-x="560" vert-adv-y="1000"  />

      
      <glyph glyph-name="unif4" unicode="&#xf4;" d="M30 130L30 430L160 560L400 560L530 430L530 130L400 0L160 0L30 130M250 170L310 170L310 390L250 390L250 170M130 590L130 710L280 770L430 710L430 590L280 650L130 590Z"  horiz-adv-x="560" vert-adv-y="1000"  />

      
      <glyph glyph-name="uni01D1" unicode="&#x01D1;" d="M25 140L25 560L165 700L395 700L535 560L535 140L395 0L165 0L25 140M250 500L250 200L310 200L310 500L250 500M430 910L430 790L280 730L130 790L130 910L280 850L430 910Z"  horiz-adv-x="560" vert-adv-y="1000"  />

      
      <glyph glyph-name="uni01D2" unicode="&#x01D2;" d="M30 130L30 430L160 560L400 560L530 430L530 130L400 0L160 0L30 130M250 170L310 170L310 390L250 390L250 170M430 770L430 650L280 590L130 650L130 770L280 710L430 770Z"  horiz-adv-x="560" vert-adv-y="1000"  />

      
      <glyph glyph-name="unid6" unicode="&#xd6;" d="M25 140L25 560L165 700L395 700L535 560L535 140L395 0L165 0L25 140M250 500L250 200L310 200L310 500L250 500M115 740L115 870L255 870L255 740L115 740M305 740L305 870L445 870L445 740L305 740Z"  horiz-adv-x="560" vert-adv-y="1000"  />

      
      <glyph glyph-name="unif6" unicode="&#xf6;" d="M30 130L30 430L160 560L400 560L530 430L530 130L400 0L160 0L30 130M250 170L310 170L310 390L250 390L250 170M115 600L115 730L255 730L255 600L115 600M305 600L305 730L445 730L445 600L305 600Z"  horiz-adv-x="560" vert-adv-y="1000"  />

      
      <glyph glyph-name="uni022A" unicode="&#x022A;" d="M25 140L25 560L165 700L395 700L535 560L535 140L395 0L165 0L25 140M250 500L250 200L310 200L310 500L250 500M115 740L115 870L255 870L255 740L115 740M305 740L305 870L445 870L445 740L305 740M130 910L130 990L430 990L430 910L130 910Z"  horiz-adv-x="560" vert-adv-y="1000"  />

      
      <glyph glyph-name="uni022B" unicode="&#x022B;" d="M30 130L30 430L160 560L400 560L530 430L530 130L400 0L160 0L30 130M250 170L310 170L310 390L250 390L250 170M115 600L115 730L255 730L255 600L115 600M305 600L305 730L445 730L445 600L305 600M130 770L130 850L430 850L430 770L130 770Z"  horiz-adv-x="560" vert-adv-y="1000"  />

      
      <glyph glyph-name="uni0150" unicode="&#x0150;" d="M25 140L25 560L165 700L395 700L535 560L535 140L395 0L165 0L25 140M250 500L250 200L310 200L310 500L250 500M145 730L185 870L325 870L245 730L145 730M290 730L350 870L490 870L390 730L290 730Z"  horiz-adv-x="560" vert-adv-y="1000"  />

      
      <glyph glyph-name="uni0151" unicode="&#x0151;" d="M30 130L30 430L160 560L400 560L530 430L530 130L400 0L160 0L30 130M250 170L310 170L310 390L250 390L250 170M145 590L185 730L325 730L245 590L145 590M290 590L350 730L490 730L390 590L290 590Z"  horiz-adv-x="560" vert-adv-y="1000"  />

      
      <glyph glyph-name="unid5" unicode="&#xd5;" d="M25 140L25 560L165 700L395 700L535 560L535 140L395 0L165 0L25 140M250 500L250 200L310 200L310 500L250 500M140 710L120 825L220 885L324 845L420 890L440 775L340 715L236 755L140 710Z"  horiz-adv-x="560" vert-adv-y="1000"  />

      
      <glyph glyph-name="unif5" unicode="&#xf5;" d="M30 130L30 430L160 560L400 560L530 430L530 130L400 0L160 0L30 130M250 170L310 170L310 390L250 390L250 170M140 570L120 685L220 745L324 705L420 750L440 635L340 575L236 615L140 570Z"  horiz-adv-x="560" vert-adv-y="1000"  />

      
      <glyph glyph-name="uni022C" unicode="&#x022C;" d="M25 140L25 560L165 700L395 700L535 560L535 140L395 0L165 0L25 140M250 500L250 200L310 200L310 500L250 500M140 710L120 825L220 885L324 845L420 890L440 775L340 715L236 755L140 710M130 910L130 990L430 990L430 910L130 910Z"  horiz-adv-x="560" vert-adv-y="1000"  />

      
      <glyph glyph-name="uni022D" unicode="&#x022D;" d="M30 130L30 430L160 560L400 560L530 430L530 130L400 0L160 0L30 130M250 170L310 170L310 390L250 390L250 170M140 570L120 685L220 745L324 705L420 750L440 635L340 575L236 615L140 570M130 770L130 850L430 850L430 770L130 770Z"  horiz-adv-x="560" vert-adv-y="1000"  />

      
      <glyph glyph-name="uni022E" unicode="&#x022E;" d="M25 140L25 560L165 700L395 700L535 560L535 140L395 0L165 0L25 140M250 500L250 200L310 200L310 500L250 500M170 740L170 870L390 870L390 740L170 740Z"  horiz-adv-x="560" vert-adv-y="1000"  />

      
      <glyph glyph-name="uni022F" unicode="&#x022F;" d="M30 130L30 430L160 560L400 560L530 430L530 130L400 0L160 0L30 130M250 170L310 170L310 390L250 390L250 170M170 600L170 730L390 730L390 600L170 600Z"  horiz-adv-x="560" vert-adv-y="1000"  />

      
      <glyph glyph-name="uni0230" unicode="&#x0230;" d="M25 140L25 560L165 700L395 700L535 560L535 140L395 0L165 0L25 140M250 500L250 200L310 200L310 500L250 500M170 740L170 870L390 870L390 740L170 740M130 910L130 990L430 990L430 910L130 910Z"  horiz-adv-x="560" vert-adv-y="1000"  />

      
      <glyph glyph-name="uni0231" unicode="&#x0231;" d="M30 130L30 430L160 560L400 560L530 430L530 130L400 0L160 0L30 130M250 170L310 170L310 390L250 390L250 170M170 600L170 730L390 730L390 600L170 600M130 770L130 850L430 850L430 770L130 770Z"  horiz-adv-x="560" vert-adv-y="1000"  />

      
      <glyph glyph-name="unid8" unicode="&#xd8;" d="M25 0L78 87L25 140L25 560L165 700L385 700L428 657L455 700L525 700L472 613L525 560L525 140L385 0L165 0L122 43L95 0L25 0M241 510L241 352L309 462L309 510L241 510M241 190L309 190L309 348L241 238L241 190Z"  horiz-adv-x="550" vert-adv-y="1000"  />

      
      <glyph glyph-name="unif8" unicode="&#xf8;" d="M20 0L82 78L30 130L30 430L160 560L400 560L436 524L465 560L540 560L478 482L530 430L530 130L400 0L160 0L124 36L95 0L20 0M240 400L240 277L320 378L320 400L240 400M240 160L320 160L320 283L240 182L240 160Z"  horiz-adv-x="560" vert-adv-y="1000"  />

      
      <glyph glyph-name="uni01FE" unicode="&#x01FE;" d="M25 0L78 87L25 140L25 560L165 700L385 700L428 657L455 700L525 700L472 613L525 560L525 140L385 0L165 0L122 43L95 0L25 0M241 510L241 352L309 462L309 510L241 510M241 190L309 190L309 348L241 238L241 190M155 740L155 840L425 870L425 740L155 740Z"  horiz-adv-x="550" vert-adv-y="1000"  />

      
      <glyph glyph-name="uni01FF" unicode="&#x01FF;" d="M20 0L82 78L30 130L30 430L160 560L400 560L436 524L465 560L540 560L478 482L530 430L530 130L400 0L160 0L124 36L95 0L20 0M240 400L240 277L320 378L320 400L240 400M240 160L320 160L320 283L240 182L240 160M160 600L160 700L430 730L430 600L160 600Z"  horiz-adv-x="560" vert-adv-y="1000"  />

      
      <glyph glyph-name="uni01EA" unicode="&#x01EA;" d="M25 140L25 560L165 700L395 700L535 560L535 140L395 0L165 0L25 140M250 500L250 200L310 200L310 500L250 500M375-40L335-200L145-200L225-40L375-40Z"  horiz-adv-x="560" vert-adv-y="1000"  />

      
      <glyph glyph-name="uni01EB" unicode="&#x01EB;" d="M30 130L30 430L160 560L400 560L530 430L530 130L400 0L160 0L30 130M250 170L310 170L310 390L250 390L250 170M375-40L335-200L145-200L225-40L375-40Z"  horiz-adv-x="560" vert-adv-y="1000"  />

      
      <glyph glyph-name="uni014C" unicode="&#x014C;" d="M25 140L25 560L165 700L395 700L535 560L535 140L395 0L165 0L25 140M250 500L250 200L310 200L310 500L250 500M130 740L130 870L430 870L430 740L130 740Z"  horiz-adv-x="560" vert-adv-y="1000"  />

      
      <glyph glyph-name="uni014D" unicode="&#x014D;" d="M30 130L30 430L160 560L400 560L530 430L530 130L400 0L160 0L30 130M250 170L310 170L310 390L250 390L250 170M130 600L130 730L430 730L430 600L130 600Z"  horiz-adv-x="560" vert-adv-y="1000"  />

      
      <glyph glyph-name="uni020C" unicode="&#x020C;" d="M25 140L25 560L165 700L395 700L535 560L535 140L395 0L165 0L25 140M250 500L250 200L310 200L310 500L250 500M375 870L415 730L315 730L235 870L375 870M210 870L270 730L170 730L70 870L210 870Z"  horiz-adv-x="560" vert-adv-y="1000"  />

      
      <glyph glyph-name="uni020D" unicode="&#x020D;" d="M30 130L30 430L160 560L400 560L530 430L530 130L400 0L160 0L30 130M250 170L310 170L310 390L250 390L250 170M375 730L415 590L315 590L235 730L375 730M210 730L270 590L170 590L70 730L210 730Z"  horiz-adv-x="560" vert-adv-y="1000"  />

      
      <glyph glyph-name="uni020E" unicode="&#x020E;" d="M25 140L25 560L165 700L395 700L535 560L535 140L395 0L165 0L25 140M250 500L250 200L310 200L310 500L250 500M250 725L100 725L200 875L360 875L460 725L310 725L310 785L250 785L250 725Z"  horiz-adv-x="560" vert-adv-y="1000"  />

      
      <glyph glyph-name="uni020F" unicode="&#x020F;" d="M30 130L30 430L160 560L400 560L530 430L530 130L400 0L160 0L30 130M250 170L310 170L310 390L250 390L250 170M250 585L100 585L200 735L360 735L460 585L310 585L310 645L250 645L250 585Z"  horiz-adv-x="560" vert-adv-y="1000"  />

      
      <glyph glyph-name="uni0152" unicode="&#x0152;" d="M25 140L25 560L165 700L685 700L685 520L525 520L525 440L665 440L665 270L525 270L525 180L695 180L695 0L165 0L25 140M245 500L245 200L305 200L305 500L245 500Z"  horiz-adv-x="715" vert-adv-y="1000"  />

      
      <glyph glyph-name="uni0153" unicode="&#x0153;" d="M30 130L30 430L160 560L370 560L420 510L470 560L770 560L770 240L530 240L530 180L750 180L750 0L440 0L420 20L400 0L160 0L30 130M530 330L590 340L590 400L530 400L530 330M250 170L310 170L310 390L250 390L250 170Z"  horiz-adv-x="800" vert-adv-y="1000"  />

      
      <glyph glyph-name="uni0186" unicode="&#x0186;" d="M440 560L440 140L300 0L20 0L20 205L200 205L200 495L20 495L20 700L300 700L440 560Z"  horiz-adv-x="465" vert-adv-y="1000"  />

      
      <glyph glyph-name="uni0254" unicode="&#x0254;" d="M420 430L420 130L290 0L30 0L30 200L200 200L200 360L30 360L30 560L290 560L420 430Z"  horiz-adv-x="440" vert-adv-y="1000"  />

      
      <glyph glyph-name="uni1E56" unicode="&#x1E56;" d="M530 560L530 270L390 130L250 130L250 0L30 0L30 700L390 700L530 560M250 300L310 300L310 530L250 530L250 300M160 740L160 870L380 870L380 740L160 740Z"  horiz-adv-x="545" vert-adv-y="1000"  />

      
      <glyph glyph-name="uni1E57" unicode="&#x1E57;" d="M30-140L30 560L390 560L530 420L530 140L390 0L250 0L250-140L30-140M310 380L250 380L250 180L310 180L310 380M160 600L160 730L380 730L380 600L160 600Z"  horiz-adv-x="560" vert-adv-y="1000"  />

      
      <glyph glyph-name="uni0138" unicode="&#x0138;" d="M30 0L30 560L250 560L250 381L279 381L323 560L552 560L463 301L560 0L329 0L284 201L250 201L250 0L30 0Z"  horiz-adv-x="570" vert-adv-y="1000"  />

      
      <glyph glyph-name="uni0154" unicode="&#x0154;" d="M530 560L530 308L460 238L560 0L302 0L289 170L250 170L250 0L30 0L30 700L390 700L530 560M250 340L310 340L310 530L250 530L250 340M135 740L135 840L405 870L405 740L135 740Z"  horiz-adv-x="560" vert-adv-y="1000"  />

      
      <glyph glyph-name="uni0155" unicode="&#x0155;" d="M30 0L30 420L170 560L375 560L375 360L250 360L250 0L30 0M90 600L90 700L360 730L360 600L90 600Z"  horiz-adv-x="390" vert-adv-y="1000"  />

      
      <glyph glyph-name="uni0158" unicode="&#x0158;" d="M530 560L530 308L460 238L560 0L302 0L289 170L250 170L250 0L30 0L30 700L390 700L530 560M250 340L310 340L310 530L250 530L250 340M405 910L405 790L255 730L105 790L105 910L255 850L405 910Z"  horiz-adv-x="560" vert-adv-y="1000"  />

      
      <glyph glyph-name="uni0159" unicode="&#x0159;" d="M30 0L30 420L170 560L375 560L375 360L250 360L250 0L30 0M360 770L360 650L210 590L60 650L60 770L210 710L360 770Z"  horiz-adv-x="390" vert-adv-y="1000"  />

      
      <glyph glyph-name="uni0156" unicode="&#x0156;" d="M530 560L530 308L460 238L560 0L302 0L289 170L250 170L250 0L30 0L30 700L390 700L530 560M250 340L310 340L310 530L250 530L250 340M160-200L200-50L390-50L310-200L160-200Z"  horiz-adv-x="560" vert-adv-y="1000"  />

      
      <glyph glyph-name="uni0157" unicode="&#x0157;" d="M30 0L30 420L170 560L375 560L375 360L250 360L250 0L30 0M25-200L65-50L255-50L175-200L25-200Z"  horiz-adv-x="390" vert-adv-y="1000"  />

      
      <glyph glyph-name="uni0210" unicode="&#x0210;" d="M530 560L530 308L460 238L560 0L302 0L289 170L250 170L250 0L30 0L30 700L390 700L530 560M250 340L310 340L310 530L250 530L250 340M350 870L390 730L290 730L210 870L350 870M185 870L245 730L145 730L45 870L185 870Z"  horiz-adv-x="560" vert-adv-y="1000"  />

      
      <glyph glyph-name="uni0211" unicode="&#x0211;" d="M30 0L30 420L170 560L375 560L375 360L250 360L250 0L30 0M305 730L345 590L245 590L165 730L305 730M140 730L200 590L100 590L0 730L140 730Z"  horiz-adv-x="390" vert-adv-y="1000"  />

      
      <glyph glyph-name="uni0212" unicode="&#x0212;" d="M530 560L530 308L460 238L560 0L302 0L289 170L250 170L250 0L30 0L30 700L390 700L530 560M250 340L310 340L310 530L250 530L250 340M225 725L75 725L175 875L335 875L435 725L285 725L285 785L225 785L225 725Z"  horiz-adv-x="560" vert-adv-y="1000"  />

      
      <glyph glyph-name="uni0213" unicode="&#x0213;" d="M30 0L30 420L170 560L375 560L375 360L250 360L250 0L30 0M180 585L30 585L130 735L290 735L390 585L240 585L240 645L180 645L180 585Z"  horiz-adv-x="390" vert-adv-y="1000"  />

      
      <glyph glyph-name="uni1E5A" unicode="&#x1E5A;" d="M530 560L530 308L460 238L560 0L302 0L289 170L250 170L250 0L30 0L30 700L390 700L530 560M250 340L310 340L310 530L250 530L250 340M165-190L165-60L385-60L385-190L165-190Z"  horiz-adv-x="560" vert-adv-y="1000"  />

      
      <glyph glyph-name="uni1E5B" unicode="&#x1E5B;" d="M30 0L30 420L170 560L375 560L375 360L250 360L250 0L30 0M30-190L30-60L250-60L250-190L30-190Z"  horiz-adv-x="390" vert-adv-y="1000"  />

      
      <glyph glyph-name="uni015A" unicode="&#x015A;" d="M35 0L35 190L275 190L275 260L25 293L25 560L165 700L485 700L485 510L245 510L245 450L495 417L495 140L355 0L35 0M155 740L155 840L425 870L425 740L155 740Z"  horiz-adv-x="520" vert-adv-y="1000"  />

      
      <glyph glyph-name="uni015B" unicode="&#x015B;" d="M30 0L30 170L260 170L260 230L30 230L30 440L150 560L480 560L480 390L250 390L250 330L480 330L480 120L360 0L30 0M155 600L155 700L425 730L425 600L155 600Z"  horiz-adv-x="510" vert-adv-y="1000"  />

      
      <glyph glyph-name="uni015C" unicode="&#x015C;" d="M35 0L35 190L275 190L275 260L25 293L25 560L165 700L485 700L485 510L245 510L245 450L495 417L495 140L355 0L35 0M125 730L125 850L275 910L425 850L425 730L275 790L125 730Z"  horiz-adv-x="520" vert-adv-y="1000"  />

      
      <glyph glyph-name="uni015D" unicode="&#x015D;" d="M30 0L30 170L260 170L260 230L30 230L30 440L150 560L480 560L480 390L250 390L250 330L480 330L480 120L360 0L30 0M125 590L125 710L275 770L425 710L425 590L275 650L125 590Z"  horiz-adv-x="510" vert-adv-y="1000"  />

      
      <glyph glyph-name="uni0160" unicode="&#x0160;" d="M35 0L35 190L275 190L275 260L25 293L25 560L165 700L485 700L485 510L245 510L245 450L495 417L495 140L355 0L35 0M425 910L425 790L275 730L125 790L125 910L275 850L425 910Z"  horiz-adv-x="520" vert-adv-y="1000"  />

      
      <glyph glyph-name="uni0161" unicode="&#x0161;" d="M30 0L30 170L260 170L260 230L30 230L30 440L150 560L480 560L480 390L250 390L250 330L480 330L480 120L360 0L30 0M425 770L425 650L275 590L125 650L125 770L275 710L425 770Z"  horiz-adv-x="510" vert-adv-y="1000"  />

      
      <glyph glyph-name="uni1E60" unicode="&#x1E60;" d="M35 0L35 190L275 190L275 260L25 293L25 560L165 700L485 700L485 510L245 510L245 450L495 417L495 140L355 0L35 0M165 740L165 870L385 870L385 740L165 740Z"  horiz-adv-x="520" vert-adv-y="1000"  />

      
      <glyph glyph-name="uni1E61" unicode="&#x1E61;" d="M30 0L30 170L260 170L260 230L30 230L30 440L150 560L480 560L480 390L250 390L250 330L480 330L480 120L360 0L30 0M165 600L165 730L385 730L385 600L165 600Z"  horiz-adv-x="510" vert-adv-y="1000"  />

      
      <glyph glyph-name="uni015E" unicode="&#x015E;" d="M35 0L35 190L275 190L275 260L25 293L25 560L165 700L485 700L485 510L245 510L245 450L495 417L495 140L355 0L35 0M130-200L170-50L360-50L280-200L130-200Z"  horiz-adv-x="520" vert-adv-y="1000"  />

      
      <glyph glyph-name="uni015F" unicode="&#x015F;" d="M30 0L30 170L260 170L260 230L30 230L30 440L150 560L480 560L480 390L250 390L250 330L480 330L480 120L360 0L30 0M120-200L160-50L350-50L270-200L120-200Z"  horiz-adv-x="510" vert-adv-y="1000"  />

      
      <glyph glyph-name="uni1E62" unicode="&#x1E62;" d="M35 0L35 190L275 190L275 260L25 293L25 560L165 700L485 700L485 510L245 510L245 450L495 417L495 140L355 0L35 0M135-190L135-60L355-60L355-190L135-190Z"  horiz-adv-x="520" vert-adv-y="1000"  />

      
      <glyph glyph-name="uni1E63" unicode="&#x1E63;" d="M30 0L30 170L260 170L260 230L30 230L30 440L150 560L480 560L480 390L250 390L250 330L480 330L480 120L360 0L30 0M125-190L125-60L345-60L345-190L125-190Z"  horiz-adv-x="510" vert-adv-y="1000"  />

      
      <glyph glyph-name="uni0218" unicode="&#x0218;" d="M35 0L35 190L275 190L275 260L25 293L25 560L165 700L485 700L485 510L245 510L245 450L495 417L495 140L355 0L35 0M130-200L170-50L360-50L280-200L130-200Z"  horiz-adv-x="520" vert-adv-y="1000"  />

      
      <glyph glyph-name="uni0219" unicode="&#x0219;" d="M30 0L30 170L260 170L260 230L30 230L30 440L150 560L480 560L480 390L250 390L250 330L480 330L480 120L360 0L30 0M120-200L160-50L350-50L270-200L120-200Z"  horiz-adv-x="510" vert-adv-y="1000"  />

      
      <glyph glyph-name="uni017F" unicode="&#x017F;" d="M30 0L30 570L160 700L370 700L370 510L250 510L250 0L30 0Z"  horiz-adv-x="390" vert-adv-y="1000"  />

      
      <glyph glyph-name="uni1E9E" unicode="&#x1E9E;" d="M545 700L545 449L483 386L560 316L560 120L440 0L290 0L290 190L340 190L340 285L290 285L290 425L335 425L335 520L250 520L250 0L30 0L30 580L150 700L545 700Z"  horiz-adv-x="575" vert-adv-y="1000"  />

      
      <glyph glyph-name="unidf" unicode="&#xdf;" d="M580 550L580 429L503 366L600 286L600 130L470 0L300 0L300 170L380 170L380 285L300 285L300 425L365 425L365 530L250 530L250 0L30 0L30 550L180 700L430 700L580 550Z"  horiz-adv-x="615" vert-adv-y="1000"  />

      
      <glyph glyph-name="uni0164" unicode="&#x0164;" d="M105 0L105 500L10 500L10 700L440 700L440 500L335 500L335 0L105 0M375 910L375 790L225 730L75 790L75 910L225 850L375 910Z"  horiz-adv-x="450" vert-adv-y="1000"  />

      
      <glyph glyph-name="uni0165" unicode="&#x0165;" d="M314 580L314 770L380 770L380 580L314 580M30 650L250 700L250 540L380 540L380 360L250 360L250 180L380 180L380 0L170 0L30 140L30 650Z"  horiz-adv-x="400" vert-adv-y="1000"  />

      
      <glyph glyph-name="uni1E6A" unicode="&#x1E6A;" d="M105 0L105 500L10 500L10 700L440 700L440 500L335 500L335 0L105 0M115 740L115 870L335 870L335 740L115 740Z"  horiz-adv-x="450" vert-adv-y="1000"  />

      
      <glyph glyph-name="uni1E6B" unicode="&#x1E6B;" d="M30 650L250 700L250 540L380 540L380 360L250 360L250 180L380 180L380 0L170 0L30 140L30 650M120 740L120 870L340 870L340 740L120 740Z"  horiz-adv-x="400" vert-adv-y="1000"  />

      
      <glyph glyph-name="uni0162" unicode="&#x0162;" d="M105 0L105 500L10 500L10 700L440 700L440 500L335 500L335 0L105 0M110-200L150-50L340-50L260-200L110-200Z"  horiz-adv-x="450" vert-adv-y="1000"  />

      
      <glyph glyph-name="uni0163" unicode="&#x0163;" d="M30 650L250 700L250 540L380 540L380 360L250 360L250 180L380 180L380 0L170 0L30 140L30 650M105-200L145-50L335-50L255-200L105-200Z"  horiz-adv-x="400" vert-adv-y="1000"  />

      
      <glyph glyph-name="uni1E6C" unicode="&#x1E6C;" d="M105 0L105 500L10 500L10 700L440 700L440 500L335 500L335 0L105 0M115-190L115-60L335-60L335-190L115-190Z"  horiz-adv-x="450" vert-adv-y="1000"  />

      
      <glyph glyph-name="uni1E6D" unicode="&#x1E6D;" d="M30 650L250 700L250 540L380 540L380 360L250 360L250 180L380 180L380 0L170 0L30 140L30 650M110-190L110-60L330-60L330-190L110-190Z"  horiz-adv-x="400" vert-adv-y="1000"  />

      
      <glyph glyph-name="uni021A" unicode="&#x021A;" d="M105 0L105 500L10 500L10 700L440 700L440 500L335 500L335 0L105 0M110-200L150-50L340-50L260-200L110-200Z"  horiz-adv-x="450" vert-adv-y="1000"  />

      
      <glyph glyph-name="uni021B" unicode="&#x021B;" d="M30 650L250 700L250 540L380 540L380 360L250 360L250 180L380 180L380 0L170 0L30 140L30 650M105-200L145-50L335-50L255-200L105-200Z"  horiz-adv-x="400" vert-adv-y="1000"  />

      
      <glyph glyph-name="uni0166" unicode="&#x0166;" d="M105 0L105 220L40 220L40 370L105 370L105 500L10 500L10 700L440 700L440 500L335 500L335 370L410 370L410 220L335 220L335 0L105 0Z"  horiz-adv-x="450" vert-adv-y="1000"  />

      
      <glyph glyph-name="uni0167" unicode="&#x0167;" d="M5 240L5 316L30 316L30 650L250 700L250 540L380 540L380 370L250 370L250 316L380 316L380 240L250 240L250 180L380 180L380 0L170 0L30 140L30 240L5 240Z"  horiz-adv-x="400" vert-adv-y="1000"  />

      
      <glyph glyph-name="unida" unicode="&#xda;" d="M30 140L30 700L250 700L250 200L310 200L310 700L530 700L530 140L390 0L170 0L30 140M160 740L160 840L430 870L430 740L160 740Z"  horiz-adv-x="560" vert-adv-y="1000"  />

      
      <glyph glyph-name="unifa" unicode="&#xfa;" d="M530 560L530 0L170 0L30 140L30 560L250 560L250 190L310 190L310 560L530 560M160 600L160 700L430 730L430 600L160 600Z"  horiz-adv-x="560" vert-adv-y="1000"  />

      
      <glyph glyph-name="unid9" unicode="&#xd9;" d="M30 140L30 700L250 700L250 200L310 200L310 700L530 700L530 140L390 0L170 0L30 140M400 740L130 740L130 870L400 840L400 740Z"  horiz-adv-x="560" vert-adv-y="1000"  />

      
      <glyph glyph-name="unif9" unicode="&#xf9;" d="M530 560L530 0L170 0L30 140L30 560L250 560L250 190L310 190L310 560L530 560M400 600L130 600L130 730L400 700L400 600Z"  horiz-adv-x="560" vert-adv-y="1000"  />

      
      <glyph glyph-name="uni016C" unicode="&#x016C;" d="M30 140L30 700L250 700L250 200L310 200L310 700L530 700L530 140L390 0L170 0L30 140M310 880L460 880L360 730L200 730L100 880L250 880L250 820L310 820L310 880Z"  horiz-adv-x="560" vert-adv-y="1000"  />

      
      <glyph glyph-name="uni016D" unicode="&#x016D;" d="M530 560L530 0L170 0L30 140L30 560L250 560L250 190L310 190L310 560L530 560M310 740L460 740L360 590L200 590L100 740L250 740L250 680L310 680L310 740Z"  horiz-adv-x="560" vert-adv-y="1000"  />

      
      <glyph glyph-name="unidb" unicode="&#xdb;" d="M30 140L30 700L250 700L250 200L310 200L310 700L530 700L530 140L390 0L170 0L30 140M130 730L130 850L280 910L430 850L430 730L280 790L130 730Z"  horiz-adv-x="560" vert-adv-y="1000"  />

      
      <glyph glyph-name="unifb" unicode="&#xfb;" d="M530 560L530 0L170 0L30 140L30 560L250 560L250 190L310 190L310 560L530 560M130 590L130 710L280 770L430 710L430 590L280 650L130 590Z"  horiz-adv-x="560" vert-adv-y="1000"  />

      
      <glyph glyph-name="uni01D3" unicode="&#x01D3;" d="M30 140L30 700L250 700L250 200L310 200L310 700L530 700L530 140L390 0L170 0L30 140M430 910L430 790L280 730L130 790L130 910L280 850L430 910Z"  horiz-adv-x="560" vert-adv-y="1000"  />

      
      <glyph glyph-name="uni01D4" unicode="&#x01D4;" d="M530 560L530 0L170 0L30 140L30 560L250 560L250 190L310 190L310 560L530 560M430 770L430 650L280 590L130 650L130 770L280 710L430 770Z"  horiz-adv-x="560" vert-adv-y="1000"  />

      
      <glyph glyph-name="uni016E" unicode="&#x016E;" d="M30 140L30 700L250 700L250 200L310 200L310 700L530 700L530 140L390 0L170 0L30 140M147 781L147 879L223 940L337 940L413 879L413 781L337 720L223 720L147 781M241 800L319 800L319 860L241 860L241 800Z"  horiz-adv-x="560" vert-adv-y="1000"  />

      
      <glyph glyph-name="uni016F" unicode="&#x016F;" d="M530 560L530 0L170 0L30 140L30 560L250 560L250 190L310 190L310 560L530 560M147 641L147 739L223 800L337 800L413 739L413 641L337 580L223 580L147 641M241 660L319 660L319 720L241 720L241 660Z"  horiz-adv-x="560" vert-adv-y="1000"  />

      
      <glyph glyph-name="unidc" unicode="&#xdc;" d="M30 140L30 700L250 700L250 200L310 200L310 700L530 700L530 140L390 0L170 0L30 140M115 740L115 870L255 870L255 740L115 740M305 740L305 870L445 870L445 740L305 740Z"  horiz-adv-x="560" vert-adv-y="1000"  />

      
      <glyph glyph-name="unifc" unicode="&#xfc;" d="M530 560L530 0L170 0L30 140L30 560L250 560L250 190L310 190L310 560L530 560M115 600L115 730L255 730L255 600L115 600M305 600L305 730L445 730L445 600L305 600Z"  horiz-adv-x="560" vert-adv-y="1000"  />

      
      <glyph glyph-name="uni01D7" unicode="&#x01D7;" d="M30 140L30 700L250 700L250 200L310 200L310 700L530 700L530 140L390 0L170 0L30 140M115 740L115 830L255 830L255 740L115 740M305 740L305 830L445 830L445 740L305 740M160 870L160 970L430 1000L430 870L160 870Z"  horiz-adv-x="560" vert-adv-y="1000"  />

      
      <glyph glyph-name="uni01D8" unicode="&#x01D8;" d="M530 560L530 0L170 0L30 140L30 560L250 560L250 190L310 190L310 560L530 560M115 600L115 690L255 690L255 600L115 600M305 600L305 690L445 690L445 600L305 600M160 730L160 830L430 860L430 730L160 730Z"  horiz-adv-x="560" vert-adv-y="1000"  />

      
      <glyph glyph-name="uni01DB" unicode="&#x01DB;" d="M30 140L30 700L250 700L250 200L310 200L310 700L530 700L530 140L390 0L170 0L30 140M115 740L115 830L255 830L255 740L115 740M305 740L305 830L445 830L445 740L305 740M400 870L130 870L130 1000L400 970L400 870Z"  horiz-adv-x="560" vert-adv-y="1000"  />

      
      <glyph glyph-name="uni01DC" unicode="&#x01DC;" d="M530 560L530 0L170 0L30 140L30 560L250 560L250 190L310 190L310 560L530 560M115 600L115 690L255 690L255 600L115 600M305 600L305 690L445 690L445 600L305 600M400 730L130 730L130 860L400 830L400 730Z"  horiz-adv-x="560" vert-adv-y="1000"  />

      
      <glyph glyph-name="uni01D9" unicode="&#x01D9;" d="M30 140L30 700L250 700L250 200L310 200L310 700L530 700L530 140L390 0L170 0L30 140M115 740L115 830L255 830L255 740L115 740M305 740L305 830L445 830L445 740L305 740M430 1000L430 910L280 850L130 910L130 1000L280 940L430 1000Z"  horiz-adv-x="560" vert-adv-y="1000"  />

      
      <glyph glyph-name="uni01DA" unicode="&#x01DA;" d="M530 560L530 0L170 0L30 140L30 560L250 560L250 190L310 190L310 560L530 560M115 600L115 690L255 690L255 600L115 600M305 600L305 690L445 690L445 600L305 600M430 860L430 770L280 710L130 770L130 860L280 800L430 860Z"  horiz-adv-x="560" vert-adv-y="1000"  />

      
      <glyph glyph-name="uni01D5" unicode="&#x01D5;" d="M30 140L30 700L250 700L250 200L310 200L310 700L530 700L530 140L390 0L170 0L30 140M115 740L115 830L255 830L255 740L115 740M305 740L305 830L445 830L445 740L305 740M130 870L130 950L430 950L430 870L130 870Z"  horiz-adv-x="560" vert-adv-y="1000"  />

      
      <glyph glyph-name="uni01D6" unicode="&#x01D6;" d="M530 560L530 0L170 0L30 140L30 560L250 560L250 190L310 190L310 560L530 560M115 600L115 690L255 690L255 600L115 600M305 600L305 690L445 690L445 600L305 600M130 730L130 810L430 810L430 730L130 730Z"  horiz-adv-x="560" vert-adv-y="1000"  />

      
      <glyph glyph-name="uni0170" unicode="&#x0170;" d="M30 140L30 700L250 700L250 200L310 200L310 700L530 700L530 140L390 0L170 0L30 140M145 730L185 870L325 870L245 730L145 730M290 730L350 870L490 870L390 730L290 730Z"  horiz-adv-x="560" vert-adv-y="1000"  />

      
      <glyph glyph-name="uni0171" unicode="&#x0171;" d="M530 560L530 0L170 0L30 140L30 560L250 560L250 190L310 190L310 560L530 560M145 590L185 730L325 730L245 590L145 590M290 590L350 730L490 730L390 590L290 590Z"  horiz-adv-x="560" vert-adv-y="1000"  />

      
      <glyph glyph-name="uni0168" unicode="&#x0168;" d="M30 140L30 700L250 700L250 200L310 200L310 700L530 700L530 140L390 0L170 0L30 140M140 710L120 825L220 885L324 845L420 890L440 775L340 715L236 755L140 710Z"  horiz-adv-x="560" vert-adv-y="1000"  />

      
      <glyph glyph-name="uni0169" unicode="&#x0169;" d="M530 560L530 0L170 0L30 140L30 560L250 560L250 190L310 190L310 560L530 560M140 570L120 685L220 745L324 705L420 750L440 635L340 575L236 615L140 570Z"  horiz-adv-x="560" vert-adv-y="1000"  />

      
      <glyph glyph-name="uni0172" unicode="&#x0172;" d="M30 140L30 700L250 700L250 200L310 200L310 700L530 700L530 140L390 0L170 0L30 140M395-40L355-200L165-200L245-40L395-40Z"  horiz-adv-x="560" vert-adv-y="1000"  />

      
      <glyph glyph-name="uni0173" unicode="&#x0173;" d="M530 560L530 0L170 0L30 140L30 560L250 560L250 190L310 190L310 560L530 560M535-40L495-200L305-200L385-40L535-40Z"  horiz-adv-x="560" vert-adv-y="1000"  />

      
      <glyph glyph-name="uni016A" unicode="&#x016A;" d="M30 140L30 700L250 700L250 200L310 200L310 700L530 700L530 140L390 0L170 0L30 140M130 740L130 870L430 870L430 740L130 740Z"  horiz-adv-x="560" vert-adv-y="1000"  />

      
      <glyph glyph-name="uni016B" unicode="&#x016B;" d="M530 560L530 0L170 0L30 140L30 560L250 560L250 190L310 190L310 560L530 560M130 600L130 730L430 730L430 600L130 600Z"  horiz-adv-x="560" vert-adv-y="1000"  />

      
      <glyph glyph-name="uni0214" unicode="&#x0214;" d="M30 140L30 700L250 700L250 200L310 200L310 700L530 700L530 140L390 0L170 0L30 140M375 870L415 730L315 730L235 870L375 870M210 870L270 730L170 730L70 870L210 870Z"  horiz-adv-x="560" vert-adv-y="1000"  />

      
      <glyph glyph-name="uni0215" unicode="&#x0215;" d="M530 560L530 0L170 0L30 140L30 560L250 560L250 190L310 190L310 560L530 560M375 730L415 590L315 590L235 730L375 730M210 730L270 590L170 590L70 730L210 730Z"  horiz-adv-x="560" vert-adv-y="1000"  />

      
      <glyph glyph-name="uni0216" unicode="&#x0216;" d="M30 140L30 700L250 700L250 200L310 200L310 700L530 700L530 140L390 0L170 0L30 140M250 725L100 725L200 875L360 875L460 725L310 725L310 785L250 785L250 725Z"  horiz-adv-x="560" vert-adv-y="1000"  />

      
      <glyph glyph-name="uni0217" unicode="&#x0217;" d="M530 560L530 0L170 0L30 140L30 560L250 560L250 190L310 190L310 560L530 560M250 585L100 585L200 735L360 735L460 585L310 585L310 645L250 645L250 585Z"  horiz-adv-x="560" vert-adv-y="1000"  />

      
      <glyph glyph-name="uni0244" unicode="&#x0244;" d="M30 140L30 345L5 345L5 455L30 455L30 700L250 700L250 455L310 455L310 700L530 700L530 455L555 455L555 345L530 345L530 140L390 0L170 0L30 140M250 200L310 200L310 345L250 345L250 200Z"  horiz-adv-x="560" vert-adv-y="1000"  />

      
      <glyph glyph-name="uni0289" unicode="&#x0289;" d="M5 290L5 400L30 400L30 560L250 560L250 400L310 400L310 560L530 560L530 400L555 400L555 290L530 290L530 0L170 0L30 140L30 290L5 290M250 190L310 190L310 290L250 290L250 190Z"  horiz-adv-x="560" vert-adv-y="1000"  />

      
      <glyph glyph-name="uni1E7C" unicode="&#x1E7C;" d="M112 0L5 700L235 700L283 190L297 190L345 700L575 700L468 0L112 0M150 710L130 825L230 885L334 845L430 890L450 775L350 715L246 755L150 710Z"  horiz-adv-x="580" vert-adv-y="1000"  />

      
      <glyph glyph-name="uni1E7D" unicode="&#x1E7D;" d="M96 0L5 560L226 560L264 185L280 185L318 560L535 560L444 0L96 0M130 570L110 685L210 745L314 705L410 750L430 635L330 575L226 615L130 570Z"  horiz-adv-x="540" vert-adv-y="1000"  />

      
      <glyph glyph-name="uni01B2" unicode="&#x01B2;" d="M170 0L30 140L30 700L250 700L250 200L310 200L310 510L270 510L270 700L430 700L530 600L530 140L390 0L170 0Z"  horiz-adv-x="560" vert-adv-y="1000"  />

      
      <glyph glyph-name="uni028B" unicode="&#x028B;" d="M170 0L30 140L30 560L250 560L250 190L310 190L310 380L270 380L270 560L430 560L530 460L530 140L390 0L170 0Z"  horiz-adv-x="560" vert-adv-y="1000"  />

      
      <glyph glyph-name="uni1E82" unicode="&#x1E82;" d="M67 0L10 700L245 700L255 240L265 240L308 590L432 590L475 240L485 240L495 700L730 700L673 0L397 0L370 257L343 0L67 0M250 740L250 840L520 870L520 740L250 740Z"  horiz-adv-x="740" vert-adv-y="1000"  />

      
      <glyph glyph-name="uni1E83" unicode="&#x1E83;" d="M74 0L5 560L220 560L245 215L255 215L297 500L453 500L495 215L505 215L530 560L745 560L676 0L410 0L375 283L340 0L74 0M255 600L255 700L525 730L525 600L255 600Z"  horiz-adv-x="750" vert-adv-y="1000"  />

      
      <glyph glyph-name="uni1E80" unicode="&#x1E80;" d="M67 0L10 700L245 700L255 240L265 240L308 590L432 590L475 240L485 240L495 700L730 700L673 0L397 0L370 257L343 0L67 0M490 740L220 740L220 870L490 840L490 740Z"  horiz-adv-x="740" vert-adv-y="1000"  />

      
      <glyph glyph-name="uni1E81" unicode="&#x1E81;" d="M74 0L5 560L220 560L245 215L255 215L297 500L453 500L495 215L505 215L530 560L745 560L676 0L410 0L375 283L340 0L74 0M495 600L225 600L225 730L495 700L495 600Z"  horiz-adv-x="750" vert-adv-y="1000"  />

      
      <glyph glyph-name="uni0174" unicode="&#x0174;" d="M67 0L10 700L245 700L255 240L265 240L308 590L432 590L475 240L485 240L495 700L730 700L673 0L397 0L370 257L343 0L67 0M220 730L220 850L370 910L520 850L520 730L370 790L220 730Z"  horiz-adv-x="740" vert-adv-y="1000"  />

      
      <glyph glyph-name="uni0175" unicode="&#x0175;" d="M74 0L5 560L220 560L245 215L255 215L297 500L453 500L495 215L505 215L530 560L745 560L676 0L410 0L375 283L340 0L74 0M225 590L225 710L375 770L525 710L525 590L375 650L225 590Z"  horiz-adv-x="750" vert-adv-y="1000"  />

      
      <glyph glyph-name="uni1E84" unicode="&#x1E84;" d="M67 0L10 700L245 700L255 240L265 240L308 590L432 590L475 240L485 240L495 700L730 700L673 0L397 0L370 257L343 0L67 0M205 740L205 870L345 870L345 740L205 740M395 740L395 870L535 870L535 740L395 740Z"  horiz-adv-x="740" vert-adv-y="1000"  />

      
      <glyph glyph-name="uni1E85" unicode="&#x1E85;" d="M74 0L5 560L220 560L245 215L255 215L297 500L453 500L495 215L505 215L530 560L745 560L676 0L410 0L375 283L340 0L74 0M210 600L210 730L350 730L350 600L210 600M400 600L400 730L540 730L540 600L400 600Z"  horiz-adv-x="750" vert-adv-y="1000"  />

      
      <glyph glyph-name="unidd" unicode="&#xdd;" d="M170 0L170 210L107 210L5 700L240 700L275 380L285 380L320 700L555 700L453 210L390 210L390 0L170 0M160 740L160 840L430 870L430 740L160 740Z"  horiz-adv-x="560" vert-adv-y="1000"  />

      
      <glyph glyph-name="unifd" unicode="&#xfd;" d="M36-140L36 40L259 40L264 80L86 80L5 560L224 560L254 250L283 250L318 560L535 560L417-140L36-140M150 600L150 700L420 730L420 600L150 600Z"  horiz-adv-x="540" vert-adv-y="1000"  />

      
      <glyph glyph-name="uni1EF2" unicode="&#x1EF2;" d="M170 0L170 210L107 210L5 700L240 700L275 380L285 380L320 700L555 700L453 210L390 210L390 0L170 0M400 740L130 740L130 870L400 840L400 740Z"  horiz-adv-x="560" vert-adv-y="1000"  />

      
      <glyph glyph-name="uni1EF3" unicode="&#x1EF3;" d="M36-140L36 40L259 40L264 80L86 80L5 560L224 560L254 250L283 250L318 560L535 560L417-140L36-140M390 600L120 600L120 730L390 700L390 600Z"  horiz-adv-x="540" vert-adv-y="1000"  />

      
      <glyph glyph-name="uni0176" unicode="&#x0176;" d="M170 0L170 210L107 210L5 700L240 700L275 380L285 380L320 700L555 700L453 210L390 210L390 0L170 0M130 730L130 850L280 910L430 850L430 730L280 790L130 730Z"  horiz-adv-x="560" vert-adv-y="1000"  />

      
      <glyph glyph-name="uni0177" unicode="&#x0177;" d="M36-140L36 40L259 40L264 80L86 80L5 560L224 560L254 250L283 250L318 560L535 560L417-140L36-140M120 590L120 710L270 770L420 710L420 590L270 650L120 590Z"  horiz-adv-x="540" vert-adv-y="1000"  />

      
      <glyph glyph-name="uni0178" unicode="&#x0178;" d="M170 0L170 210L107 210L5 700L240 700L275 380L285 380L320 700L555 700L453 210L390 210L390 0L170 0M115 740L115 870L255 870L255 740L115 740M305 740L305 870L445 870L445 740L305 740Z"  horiz-adv-x="560" vert-adv-y="1000"  />

      
      <glyph glyph-name="uniff" unicode="&#xff;" d="M36-140L36 40L259 40L264 80L86 80L5 560L224 560L254 250L283 250L318 560L535 560L417-140L36-140M105 600L105 730L245 730L245 600L105 600M295 600L295 730L435 730L435 600L295 600Z"  horiz-adv-x="540" vert-adv-y="1000"  />

      
      <glyph glyph-name="uni1EF8" unicode="&#x1EF8;" d="M170 0L170 210L107 210L5 700L240 700L275 380L285 380L320 700L555 700L453 210L390 210L390 0L170 0M140 710L120 825L220 885L324 845L420 890L440 775L340 715L236 755L140 710Z"  horiz-adv-x="560" vert-adv-y="1000"  />

      
      <glyph glyph-name="uni1EF9" unicode="&#x1EF9;" d="M36-140L36 40L259 40L264 80L86 80L5 560L224 560L254 250L283 250L318 560L535 560L417-140L36-140M130 570L110 685L210 745L314 705L410 750L430 635L330 575L226 615L130 570Z"  horiz-adv-x="540" vert-adv-y="1000"  />

      
      <glyph glyph-name="uni0232" unicode="&#x0232;" d="M170 0L170 210L107 210L5 700L240 700L275 380L285 380L320 700L555 700L453 210L390 210L390 0L170 0M130 740L130 870L430 870L430 740L130 740Z"  horiz-adv-x="560" vert-adv-y="1000"  />

      
      <glyph glyph-name="uni0233" unicode="&#x0233;" d="M36-140L36 40L259 40L264 80L86 80L5 560L224 560L254 250L283 250L318 560L535 560L417-140L36-140M120 600L120 730L420 730L420 600L120 600Z"  horiz-adv-x="540" vert-adv-y="1000"  />

      
      <glyph glyph-name="uni01B3" unicode="&#x01B3;" d="M170 0L170 210L107 210L5 700L240 700L275 380L285 380L320 640L380 700L559 700L559 510L514 510L453 210L390 210L390 0L170 0Z"  horiz-adv-x="570" vert-adv-y="1000"  />

      
      <glyph glyph-name="uni01B4" unicode="&#x01B4;" d="M36-140L36 40L259 40L264 80L86 80L5 560L224 560L254 250L283 250L325 630L395 700L550 700L550 540L520 540L417-140L36-140Z"  horiz-adv-x="540" vert-adv-y="1000"  />

      
      <glyph glyph-name="uni0179" unicode="&#x0179;" d="M20 0L20 160L215 520L25 520L25 700L460 700L460 540L265 180L465 180L465 0L20 0M123 740L123 840L393 870L393 740L123 740Z"  horiz-adv-x="485" vert-adv-y="1000"  />

      
      <glyph glyph-name="uni017A" unicode="&#x017A;" d="M20 0L20 160L170 380L25 380L25 560L410 560L410 400L260 180L415 180L415 0L20 0M98 600L98 700L368 730L368 600L98 600Z"  horiz-adv-x="435" vert-adv-y="1000"  />

      
      <glyph glyph-name="uni017D" unicode="&#x017D;" d="M20 0L20 160L215 520L25 520L25 700L460 700L460 540L265 180L465 180L465 0L20 0M393 910L393 790L243 730L93 790L93 910L243 850L393 910Z"  horiz-adv-x="485" vert-adv-y="1000"  />

      
      <glyph glyph-name="uni017E" unicode="&#x017E;" d="M20 0L20 160L170 380L25 380L25 560L410 560L410 400L260 180L415 180L415 0L20 0M368 770L368 650L218 590L68 650L68 770L218 710L368 770Z"  horiz-adv-x="435" vert-adv-y="1000"  />

      
      <glyph glyph-name="uni017B" unicode="&#x017B;" d="M20 0L20 160L215 520L25 520L25 700L460 700L460 540L265 180L465 180L465 0L20 0M133 740L133 870L353 870L353 740L133 740Z"  horiz-adv-x="485" vert-adv-y="1000"  />

      
      <glyph glyph-name="uni017C" unicode="&#x017C;" d="M20 0L20 160L170 380L25 380L25 560L410 560L410 400L260 180L415 180L415 0L20 0M108 600L108 730L328 730L328 600L108 600Z"  horiz-adv-x="435" vert-adv-y="1000"  />

      
      <glyph glyph-name="uni1E92" unicode="&#x1E92;" d="M20 0L20 160L215 520L25 520L25 700L460 700L460 540L265 180L465 180L465 0L20 0M133-190L133-60L353-60L353-190L133-190Z"  horiz-adv-x="485" vert-adv-y="1000"  />

      
      <glyph glyph-name="uni1E93" unicode="&#x1E93;" d="M20 0L20 160L170 380L25 380L25 560L410 560L410 400L260 180L415 180L415 0L20 0M108-190L108-60L328-60L328-190L108-190Z"  horiz-adv-x="435" vert-adv-y="1000"  />

      
      <glyph glyph-name="uni01B7" unicode="&#x01B7;" d="M350 0L20 0L20 180L265 180L265 270L80 270L80 410L210 520L20 520L20 700L460 700L460 560L295 420L400 420L490 330L490 140L350 0Z"  horiz-adv-x="510" vert-adv-y="1000"  />

      
      <glyph glyph-name="uni0292" unicode="&#x0292;" d="M345-140L15-140L15 40L260 40L260 120L75 120L75 260L211 380L15 380L15 560L470 560L470 420L290 270L395 270L485 180L485 0L345-140Z"  horiz-adv-x="500" vert-adv-y="1000"  />

      
      <glyph glyph-name="uni01EE" unicode="&#x01EE;" d="M350 0L20 0L20 180L265 180L265 270L80 270L80 410L210 520L20 520L20 700L460 700L460 560L295 420L400 420L490 330L490 140L350 0M405 910L405 790L255 730L105 790L105 910L255 850L405 910Z"  horiz-adv-x="510" vert-adv-y="1000"  />

      
      <glyph glyph-name="uni01EF" unicode="&#x01EF;" d="M345-140L15-140L15 40L260 40L260 120L75 120L75 260L211 380L15 380L15 560L470 560L470 420L290 270L395 270L485 180L485 0L345-140M400 770L400 650L250 590L100 650L100 770L250 710L400 770Z"  horiz-adv-x="500" vert-adv-y="1000"  />

      
      <glyph glyph-name="unide" unicode="&#xde;" d="M30 0L30 700L250 700L250 620L380 620L530 470L530 240L380 90L250 90L250 0L30 0M250 260L310 260L310 450L250 450L250 260Z"  horiz-adv-x="545" vert-adv-y="1000"  />

      
      <glyph glyph-name="unife" unicode="&#xfe;" d="M30-140L30 700L250 700L250 560L380 560L530 410L530 150L380 0L250 0L250-140L30-140M250 180L310 180L310 380L250 380L250 180Z"  horiz-adv-x="560" vert-adv-y="1000"  />

      
      </font>
</defs>
</svg>
